<svg xmlns="http://www.w3.org/2000/svg" viewBox="0 0 64 64"><g data-name="27-equipment"><circle cx="12" cy="12" r="2" style="fill:#beb4aa"/><circle cx="12" cy="58" r="2" style="fill:#fff"/><circle cx="37" cy="58" r="2" style="fill:#fff"/><path d="M45 55c0-4.59 3.08-12.86 4.83-17.19a4.5 4.5 0 0 1 3.14-2.69C52.56 36.44 49 48.34 49 54c0 5.88 1.92 7.92 3.88 8.94a9.75 9.75 0 0 1-5.55-2.61A7.5 7.5 0 0 1 45 55z" style="fill:#fff"/><path d="M54 35v28a10.506 10.506 0 0 1-1.12-.06C50.92 61.92 49 59.88 49 54c0-5.66 3.56-17.56 3.97-18.88A4.461 4.461 0 0 1 54 35zM58.17 37.81C59.92 42.14 63 50.41 63 55a7.5 7.5 0 0 1-2.33 5.33 9.75 9.75 0 0 1-5.55 2.61C57.08 61.92 59 59.88 59 54c0-5.66-3.56-17.56-3.97-18.88a4.5 4.5 0 0 1 3.14 2.69z" style="fill:#fff"/><path d="M55.03 35.12C55.44 36.44 59 48.34 59 54c0 5.88-1.92 7.92-3.88 8.94A10.506 10.506 0 0 1 54 63V35a4.461 4.461 0 0 1 1.03.12z" style="fill:#fff"/><path style="fill:#918778" d="M56.22 19 56 23h-4l-.22-4h4.44z"/><path d="M37 1h7.35a3.949 3.949 0 0 1 2.82 1.18l.66.67a4.046 4.046 0 0 1 1.11 3.54l-2.61 14.94a2.248 2.248 0 0 1-2.19 1.66L39 23h-4l-5.14-.01a2.248 2.248 0 0 1-2.19-1.66L25.06 6.39a4.046 4.046 0 0 1 1.11-3.54l.66-.67A3.949 3.949 0 0 1 29.65 1zM12 1a11 11 0 1 0 11 11A10.994 10.994 0 0 0 12 1zm0 13a2 2 0 1 1 2-2 2.006 2.006 0 0 1-2 2z" style="fill:#e8e4dc"/><path d="M14 22.82V42h-4V22.82a11.2 11.2 0 0 0 4 0zM35 23h4v16h-4z" style="fill:#d6cec1"/><path d="M57 4v1l-.78 14h-4.44L51 5V4a3 3 0 0 1 6 0zM37 63s-5 0-5-5c0-4 3-19 3-19h4s3 15 3 19c0 5-5 5-5 5zm0-3a2 2 0 1 0-2-2 2.006 2.006 0 0 0 2 2zM7 59c0-3 3-17 3-17h4s3 14 3 17-2 4-5 4-5-1-5-4zm7-1a2 2 0 1 0-2 2 2.006 2.006 0 0 0 2-2z" style="fill:#da684e"/><path d="M12 4a8 8 0 1 0 8 8 8 8 0 0 0-8-8zm0 10a2 2 0 1 1 2-2 2.006 2.006 0 0 1-2 2z" style="fill:#d6cec1"/><path d="M12 27a2 2 0 0 1 2-2v-2.18a11.2 11.2 0 0 1-4 0V42h2zM37 27a2 2 0 0 1 2-2v-2h-4v16h2z" style="fill:#beb4aa"/><path d="M34 58c0-4 3-19 3-19h-2s-3 15-3 19c0 5 5 5 5 5s3.485-.012 4.631-2.933C39.114 62.5 34 62.524 34 58zM9 58c0-4 3-16 3-16h-2S7 56 7 59s2 4 5 4c2.737 0 4.622-.851 4.936-3.274C14.561 62.477 9 62.723 9 58z" style="fill:#bd4c3d"/><path d="m47.83 2.85-.66-.67a3.955 3.955 0 0 0-1.356-.894l-.648 14.888a4 4 0 0 1-4 3.826H32.83a4 4 0 0 1-4-3.826l-.644-14.888a3.955 3.955 0 0 0-1.356.894l-.66.67a4.046 4.046 0 0 0-1.11 3.54l2.61 14.94a2.248 2.248 0 0 0 2.19 1.66L35 23h4l5.14-.01a2.248 2.248 0 0 0 2.19-1.66l2.61-14.94a4.046 4.046 0 0 0-1.11-3.54z" style="fill:#d6cec1"/><path d="M53 19h-1.22l.22 4h4l.11-2H55a2 2 0 0 1-2-2z" style="fill:#635d50"/><path d="M53 3a2 2 0 0 1 1.548-1.944A2.973 2.973 0 0 0 51 4v1l.78 14H53z" style="fill:#bd4c3d"/><path d="M34 28h2v2h-2z"/><path d="m40 24 4.121-.008a3.256 3.256 0 0 0 3.19-2.482l2.614-14.948a5.085 5.085 0 0 0 .075-.87 5.01 5.01 0 0 0-1.458-3.547l-.665-.671A4.932 4.932 0 0 0 44.349 0h-14.7a4.932 4.932 0 0 0-3.528 1.474l-.666.671a5.043 5.043 0 0 0-1.381 4.418l2.613 14.943a3.228 3.228 0 0 0 3.173 2.481L34 24v2h2v-2h2v14h-2v-6h-2v6.9c-.282 1.417-3 15.173-3 19.1a5.785 5.785 0 0 0 6 6 5.785 5.785 0 0 0 6-6c0-3.926-2.718-17.682-3-19.1zm-10.15-2.013a1.261 1.261 0 0 1-1.191-.826l-2.613-14.94A3.132 3.132 0 0 1 26 5.692a3.023 3.023 0 0 1 .877-2.139l.665-.671A2.95 2.95 0 0 1 29.651 2h14.7a2.95 2.95 0 0 1 2.109.882l.664.671A3.019 3.019 0 0 1 48 5.692a3.217 3.217 0 0 1-.045.528l-2.614 14.94a1.27 1.27 0 0 1-1.2.827h-.012L37 22zM41 58a3.85 3.85 0 0 1-4 4c-.163 0-4-.046-4-4 0-3.333 2.2-14.846 2.822-18h2.356C38.8 43.154 41 54.666 41 58z"/><path d="M34 58a3 3 0 1 0 3-3 3 3 0 0 0-3 3zm4 0a1 1 0 1 1-1-1 1 1 0 0 1 1 1zM42 4h2v16h-2zM38 4h2v16h-2zM34 4h2v16h-2zM30 4h2v16h-2zM12 0a11.992 11.992 0 0 0-3 23.605V26h2v-2.051c.331.028.662.051 1 .051s.669-.023 1-.051V41h-2v-9H9v9.893C8.708 43.266 6 56.033 6 59c0 2.281 1.041 5 6 5s6-2.719 6-5c0-2.967-2.708-15.734-3-17.107V23.605A11.992 11.992 0 0 0 12 0zm0 62c-3.516 0-4-1.441-4-3 0-2.228 1.892-11.651 2.81-16h2.38C14.108 47.349 16 56.772 16 59c0 1.559-.484 3-4 3zm0-40a10 10 0 1 1 10-10 10.011 10.011 0 0 1-10 10z"/><path d="M9 28h2v2H9zM9 58a3 3 0 1 0 3-3 3 3 0 0 0-3 3zm4 0a1 1 0 1 1-1-1 1 1 0 0 1 1 1zM9 12a3 3 0 1 0 3-3 3 3 0 0 0-3 3zm4 0a1 1 0 1 1-1-1 1 1 0 0 1 1 1zM11 3h2v2h-2zM11 6h2v2h-2zM11 16h2v2h-2zM11 19h2v2h-2zM19 11h2v2h-2zM16 11h2v2h-2zM6 11h2v2H6zM3 11h2v2H3zM15.96 17.375l1.413-1.414 1.334 1.333-1.414 1.414zM13.96 15.374l1.414-1.414 1.334 1.333-1.414 1.415zM7.293 8.707l1.414-1.414 1.334 1.334-1.414 1.414zM5.294 6.707l1.414-1.415L8.04 6.626 6.627 8.04zM5.293 17.293l1.334-1.333 1.414 1.414-1.333 1.334zM7.293 15.293l1.334-1.334 1.414 1.415-1.333 1.333zM13.96 8.626l1.334-1.333 1.414 1.414-1.333 1.334zM15.96 6.626l1.334-1.334 1.414 1.415-1.333 1.333zM64 55c0-4.726-3.069-13.033-4.9-17.564A5.455 5.455 0 0 0 55 34.1V24h1a1 1 0 0 0 1-.944L58 5V4a4 4 0 0 0-8 0v1.056l1 18A1 1 0 0 0 52 24h1v10.1a5.455 5.455 0 0 0-4.1 3.336C47.069 41.967 44 50.274 44 55a8.518 8.518 0 0 0 2.646 6.055 10.622 10.622 0 0 0 5.873 2.819c.012.006.022.014.034.021l.007-.015a9.654 9.654 0 0 0 2.88 0l.007.015c.012-.007.022-.015.034-.021a10.629 10.629 0 0 0 5.873-2.819A8.518 8.518 0 0 0 64 55zM52 4a2 2 0 0 1 4 0v.944L55.276 18h-2.553L52 5zm.835 16h2.33l-.111 2h-2.108zM53 38.6v23.257c-1.481-.894-3-2.721-3-7.857 0-3.951 1.829-11.179 3-15.4zm2 23.257V38.6c1.171 4.221 3 11.449 3 15.4 0 5.136-1.519 6.963-3 7.857zM46 55c0-4.551 3.324-13.276 4.752-16.816a3.534 3.534 0 0 1 .539-.909C50.118 41.411 48 49.505 48 54a14.578 14.578 0 0 0 1.257 6.574 8.711 8.711 0 0 1-1.236-.97A6.488 6.488 0 0 1 46 55zm12.743 5.574A14.578 14.578 0 0 0 60 54c0-4.495-2.118-12.589-3.291-16.725a3.534 3.534 0 0 1 .539.909C58.676 41.724 62 50.449 62 55a6.488 6.488 0 0 1-2.021 4.6 8.711 8.711 0 0 1-1.236.974z"/><path d="M53 3h2v2h-2z"/></g></svg>