<svg xmlns="http://www.w3.org/2000/svg" width="48.001" height="48"><path d="M41.811 18.556 29.444 6.188a3.74 3.74 0 0 0-5.287 0l-23.5 23.5a2.242 2.242 0 0 0 0 3.171l14.482 14.484a2.243 2.243 0 0 0 3.172 0l23.5-23.5a3.737 3.737 0 0 0 0-5.287z" fill="#e2e2e2"/><path d="M47.173.827c-.787-.786-2.657-1.711-4.484.875s-3.448 1.753-4.317 1.437a2.958 2.958 0 0 0-3.12 1.529l8.081 8.082a2.958 2.958 0 0 0 1.529-3.122c-.316-.867-1.149-2.488 1.437-4.315s1.661-3.699.874-4.486z" fill="#ffbd66"/><path d="m43.909 13.325-9.234-9.234a1.5 1.5 0 0 0-2.115 0L29.954 6.7 41.3 18.047l2.607-2.606a1.5 1.5 0 0 0 .002-2.116z" fill="#f87670"/><path d="m30.178 16.391 1.057-1.058-3.989-3.989a.749.749 0 0 0-1.057 0L6.551 30.982a.747.747 0 0 0 0 1.057l3.989 3.988 1.06-1.056-3.46-3.46 2.87-2.871 3.461 3.46 1.057-1.057-3.46-3.46 2.87-2.871 3.461 3.46 1.057-1.058-3.46-3.46 2.871-2.869 3.46 3.46 1.058-1.058-3.461-3.46 2.871-2.87 3.46 3.46 1.058-1.058-3.46-3.46 2.87-2.869z" fill="#7a8e9b"/></svg>