<svg data-name="Layer 2" xmlns="http://www.w3.org/2000/svg" viewBox="0 0 128 128"><path d="M62.633 80.879h-.941A22.518 22.518 0 0 0 47.513 69.6V19.967a5.679 5.679 0 1 0-11.357 0V69.6a22.517 22.517 0 0 0-14.179 11.279h-.941a4.267 4.267 0 0 0-1.523 8.257 22.479 22.479 0 0 0-.105 2.15v20.677a1.75 1.75 0 0 0 1.75 1.75h41.354a1.75 1.75 0 0 0 1.75-1.75V91.285c0-.725-.038-1.442-.105-2.15a4.267 4.267 0 0 0-1.523-8.257zm-22.978-11.91v-49a2.179 2.179 0 1 1 4.357 0v49c-.046 0-.091 0-.138-.007-.673-.061-1.352-.1-2.041-.1s-1.368.042-2.041.1c-.045.004-.092.002-.137.007zm-1.491 3.749c.024 0 .048 0 .072-.007a19.392 19.392 0 0 1 1.709-.249l.2-.02a18.29 18.29 0 0 1 3.372 0l.21.02c.565.058 1.131.138 1.7.249h.063a18.976 18.976 0 0 1 12.132 8.163H26.041a18.974 18.974 0 0 1 12.123-8.156zM21.036 84.379h41.6a.775.775 0 0 1 0 1.55h-41.6a.775.775 0 0 1 0-1.55zm39.726 25.833h-5.689v-6.469a1.75 1.75 0 0 0-3.5 0v6.469h-7.989v-6.469a1.75 1.75 0 0 0-3.5 0v6.469h-7.989v-6.469a1.75 1.75 0 1 0-3.5 0v6.469h-5.688V91.285c0-.627.034-1.245.094-1.856h37.667c.06.611.094 1.23.094 1.856z"/><path d="M110.339 104.225 78.763 86.65V19.967a5.679 5.679 0 1 0-11.357 0v92a1.75 1.75 0 0 0 1.75 1.75h40.333a1.75 1.75 0 0 0 1.75-1.75v-6.208a1.749 1.749 0 0 0-.9-1.534zM70.905 19.967a2.179 2.179 0 1 1 4.357 0v90.245h-4.357zm36.833 90.245H85.905v-6.469a1.75 1.75 0 0 0-3.5 0v6.469h-3.642V90.655l28.976 16.127zM97.847 59.824a1.75 1.75 0 0 0 1.75-1.75V55.4a1.75 1.75 0 0 0-3.5 0v2.675a1.75 1.75 0 0 0 1.75 1.749z"/><path d="M91.913 63.278h2.675a1.75 1.75 0 0 0 0-3.5h-2.675a1.75 1.75 0 0 0 0 3.5zM98.042 63.037a1.75 1.75 0 0 0-1.75 1.75v2.675a1.75 1.75 0 0 0 3.5 0v-2.675a1.75 1.75 0 0 0-1.75-1.75zM101.3 63.083h2.675a1.75 1.75 0 0 0 0-3.5H101.3a1.75 1.75 0 1 0 0 3.5zM21.06 35.877a1.75 1.75 0 0 0 1.75-1.75v-2.675a1.75 1.75 0 0 0-3.5 0v2.675a1.75 1.75 0 0 0 1.75 1.75zM19.551 37.581a1.75 1.75 0 0 0-1.75-1.75h-2.675a1.75 1.75 0 1 0 0 3.5H17.8a1.75 1.75 0 0 0 1.751-1.75zM23 40.84a1.75 1.75 0 0 0-3.5 0v2.675a1.75 1.75 0 0 0 3.5 0zM24.514 39.136h2.675a1.75 1.75 0 0 0 0-3.5h-2.675a1.75 1.75 0 0 0 0 3.5z"/></svg>