<svg xmlns="http://www.w3.org/2000/svg" viewBox="0 0 64 64"><g data-name="02-Sales"><path style="fill:#febd55" d="M63 44v19H51l12-19z"/><path style="fill:#edf4fa" d="M54.68 44.68 57 41l6 3-12 19-6-3 1.94-3.06 7.74-12.26z"/><path d="M13.59 29.59A1.955 1.955 0 0 1 15 29a6.87 6.87 0 0 1 3.69 1.07L28 36h-4.5a3.414 3.414 0 0 0-1.99.63L13.17 31c-.05-.04-.11-.07-.16-.11a1.936 1.936 0 0 1 .58-1.3z" style="fill:#feb589"/><path d="M22 43s-8.95-7.16-13.03-10.42a7.893 7.893 0 0 0-.97-.66v-.19A1.794 1.794 0 0 1 9.86 30H10a5.449 5.449 0 0 1 3.01.89c.05.04.11.07.16.11l8.34 5.63a3.637 3.637 0 0 0-.48.4A3.46 3.46 0 0 0 20 39.5a3.5 3.5 0 0 0 3.5 3.5H22z" style="fill:#feb589"/><path d="M8.97 32.58C13.05 35.84 22 43 22 43h1.5a3.5 3.5 0 0 1-3.5-3.5 3.46 3.46 0 0 1 1.03-2.47 3.637 3.637 0 0 1 .48-.4A3.414 3.414 0 0 1 23.5 36H42a9.691 9.691 0 0 1 6.83 2.83l5.85 5.85-7.74 12.26L46 56H28.69a12.544 12.544 0 0 1-8.23-3.07L2.13 37.03A3.477 3.477 0 0 1 1 34.47v-.09A3.376 3.376 0 0 1 4.38 31h.07a7.251 7.251 0 0 1 3.55.92 7.893 7.893 0 0 1 .97.66z" style="fill:#ffd6bd"/><path d="M39 40H24a3.985 3.985 0 0 1-3.546-2.186A3.447 3.447 0 0 0 20 39.5a3.5 3.5 0 0 0 3.5 3.5H42a3 3 0 0 0-3-3z" style="fill:#fec09b"/><path d="m52.222 42.222-2.685 4.221A12 12 0 0 1 39.413 52H27.1a5.993 5.993 0 0 1-3.74-1.309L4.648 35.773a4 4 0 0 1-1.323-4.589A3.364 3.364 0 0 0 1 34.38v.09a3.477 3.477 0 0 0 1.13 2.56l18.33 15.9A12.544 12.544 0 0 0 28.69 56H46l.94.94 7.74-12.26z" style="fill:#fec09b"/><path d="M20 39.5a3.46 3.46 0 0 1 1.03-2.47 3.637 3.637 0 0 1 .48-.4l-.727-.491a3.994 3.994 0 0 1-4.49.138l-7.241-4.608a.982.982 0 0 1-.323-1.306A1.681 1.681 0 0 0 8 31.73v.19a7.893 7.893 0 0 1 .97.66C13.05 35.84 22 43 22 43h1.5a3.5 3.5 0 0 1-3.5-3.5z" style="fill:#eda377"/><path d="M23.606 35a6 6 0 0 1-3-.8l-5.127-2.957a1.987 1.987 0 0 1-1.058-2.143 1.982 1.982 0 0 0-1.411 1.8c.05.04.11.07.16.11l8.34 5.63A3.414 3.414 0 0 1 23.5 36H28l-1.57-1z" style="fill:#eda377"/><path d="M60.446 58a2 2 0 0 1-1.736-2.992L63 47.5V44L51 63h12v-5z" style="fill:#fc9e20"/><path d="m60.022 42.511-8.189 12.656a3.991 3.991 0 0 1-4.759 1.561l-.134.212L45 60l6 3 12-19z" style="fill:#d6e0eb"/><path d="M47 16c0 1.089-2.314 1.9-2.54 2.915-.233 1.051 1.5 2.805 1.057 3.754s-2.881.663-3.526 1.491.174 3.188-.638 3.853-2.867-.683-3.809-.218c-.926.458-1.18 2.948-2.206 3.187-.994.232-2.275-1.894-3.338-1.894s-2.344 2.126-3.338 1.894c-1.027-.239-1.281-2.729-2.207-3.187-.942-.465-3 .878-3.809.217s.011-3.02-.637-3.852-3.072-.528-3.526-1.492c-.447-.948 1.29-2.7 1.057-3.754C19.314 17.9 17 17.088 17 16s2.314-1.9 2.54-2.915c.233-1.051-1.5-2.805-1.057-3.754s2.881-.663 3.526-1.491-.174-3.188.638-3.853 2.867.683 3.809.218c.926-.458 1.18-2.948 2.206-3.187.994-.232 2.275 1.894 3.338 1.894s2.344-2.126 3.338-1.894c1.027.239 1.281 2.729 2.207 3.187.942.465 3-.878 3.809-.217s-.011 3.02.637 3.852 3.072.528 3.526 1.492c.447.948-1.29 2.7-1.057 3.754C44.686 14.1 47 14.912 47 16z" style="fill:#cb3541"/><path d="M44 16c0 .871-1.851 1.517-2.032 2.332-.187.841 1.2 2.244.845 3s-2.3.531-2.82 1.193.139 2.551-.511 3.082-2.293-.546-3.046-.174-.945 2.359-1.766 2.55c-.8.185-1.82-1.515-2.67-1.515s-1.875 1.7-2.671 1.515c-.821-.191-1.024-2.184-1.765-2.55s-2.4.7-3.047.174.009-2.416-.51-3.082-2.457-.422-2.821-1.193 1.033-2.162.846-3C21.851 17.517 20 16.871 20 16s1.851-1.517 2.032-2.332c.187-.841-1.2-2.244-.845-3s2.3-.531 2.82-1.193-.139-2.551.511-3.082 2.293.546 3.046.174.945-2.359 1.766-2.55c.8-.185 1.82 1.515 2.67 1.515s1.875-1.7 2.671-1.515c.821.191 1.024 2.184 1.765 2.55s2.4-.7 3.047-.174-.009 2.416.51 3.082 2.457.422 2.821 1.193-1.033 2.162-.846 3C42.149 14.483 44 15.129 44 16z" style="fill:#ff6161"/><path d="M17.693 18.366a5.1 5.1 0 0 1 .869.752 4.143 4.143 0 0 1-.472 1.16c-.447.88-.954 1.876-.512 2.816.455.966 1.555 1.184 2.526 1.377a5.2 5.2 0 0 1 1.1.287 4.284 4.284 0 0 1 .063 1.236c-.032 1-.067 2.13.743 2.792s1.9.382 2.857.128a6.437 6.437 0 0 1 1.115-.238 4.327 4.327 0 0 1 .562 1.065c.4.925.852 1.974 1.887 2.216a1.78 1.78 0 0 0 .392.045 3.67 3.67 0 0 0 2.209-1.19 5.268 5.268 0 0 1 .942-.725 4.171 4.171 0 0 1 .986.725c.742.647 1.584 1.382 2.6 1.145 1.035-.242 1.487-1.29 1.886-2.216a6.266 6.266 0 0 1 .512-1.039 4.24 4.24 0 0 1 1.165.212c.955.255 2.036.544 2.858-.127s.774-1.793.743-2.791a5.356 5.356 0 0 1 .035-1.2 4.077 4.077 0 0 1 1.132-.322c.971-.192 2.071-.41 2.525-1.376.443-.94-.064-1.937-.511-2.817a4.962 4.962 0 0 1-.481-1.124 4.188 4.188 0 0 1 .878-.788C47.1 17.76 48 17.073 48 16s-.9-1.76-1.693-2.366a5.1 5.1 0 0 1-.869-.752 4.143 4.143 0 0 1 .472-1.16c.447-.88.954-1.876.512-2.816-.455-.966-1.555-1.184-2.526-1.377a5.2 5.2 0 0 1-1.1-.287 4.284 4.284 0 0 1-.063-1.236c.032-1 .067-2.13-.743-2.792s-1.9-.383-2.857-.128a5.783 5.783 0 0 1-1.115.238 4.327 4.327 0 0 1-.562-1.065c-.4-.925-.852-1.974-1.887-2.216-1.015-.234-1.858.5-2.6 1.145a5.268 5.268 0 0 1-.942.725 4.171 4.171 0 0 1-.986-.725c-.742-.647-1.583-1.377-2.6-1.145-1.035.242-1.487 1.29-1.886 2.216a6.266 6.266 0 0 1-.518 1.041 4.227 4.227 0 0 1-1.165-.212c-.954-.254-2.036-.544-2.858.127S21.24 5.006 21.271 6a5.356 5.356 0 0 1-.035 1.2 4.077 4.077 0 0 1-1.132.322c-.971.192-2.071.41-2.525 1.376-.443.94.064 1.937.511 2.817a4.962 4.962 0 0 1 .481 1.124 4.188 4.188 0 0 1-.878.788C16.9 14.24 16 14.927 16 16s.9 1.76 1.693 2.366zm1.214-3.143a3.674 3.674 0 0 0 1.609-1.923 3.831 3.831 0 0 0-.643-2.487 5.931 5.931 0 0 1-.455-1.043 5.646 5.646 0 0 1 1.075-.281 3.634 3.634 0 0 0 2.3-1.036 3.812 3.812 0 0 0 .473-2.513A6.115 6.115 0 0 1 23.3 4.8a6.053 6.053 0 0 1 1.053.22 3.669 3.669 0 0 0 2.547.08 3.705 3.705 0 0 0 1.487-2.05c.143-.33.372-.863.477-1.024a5.928 5.928 0 0 1 .86.669A3.75 3.75 0 0 0 32 3.912 3.747 3.747 0 0 0 34.278 2.7a6.559 6.559 0 0 1 .833-.654 6.29 6.29 0 0 1 .505 1.01A3.712 3.712 0 0 0 37.1 5.1a3.669 3.669 0 0 0 2.544-.083A5.9 5.9 0 0 1 40.7 4.8a6.115 6.115 0 0 1 .03 1.144 3.807 3.807 0 0 0 .47 2.511 3.626 3.626 0 0 0 2.3 1.036 5.717 5.717 0 0 1 1.075.282 5.892 5.892 0 0 1-.455 1.042 3.831 3.831 0 0 0-.643 2.487 3.676 3.676 0 0 0 1.609 1.922 5.172 5.172 0 0 1 .885.776 5.212 5.212 0 0 1-.885.777 3.674 3.674 0 0 0-1.602 1.923 3.831 3.831 0 0 0 .643 2.487 5.931 5.931 0 0 1 .455 1.043 5.646 5.646 0 0 1-1.075.281 3.634 3.634 0 0 0-2.3 1.036 3.812 3.812 0 0 0-.473 2.513 6.115 6.115 0 0 1-.034 1.14 6.053 6.053 0 0 1-1.053-.22 3.68 3.68 0 0 0-2.547-.08 3.705 3.705 0 0 0-1.487 2.05c-.143.33-.372.863-.477 1.024a5.928 5.928 0 0 1-.86-.669A3.75 3.75 0 0 0 32 28.088a3.747 3.747 0 0 0-2.278 1.212 6.559 6.559 0 0 1-.833.654 6.29 6.29 0 0 1-.5-1.01A3.712 3.712 0 0 0 26.9 26.9a3.675 3.675 0 0 0-2.544.083 5.9 5.9 0 0 1-1.054.22 6.115 6.115 0 0 1-.03-1.144 3.807 3.807 0 0 0-.473-2.512 3.626 3.626 0 0 0-2.3-1.036 5.717 5.717 0 0 1-1.075-.282 5.892 5.892 0 0 1 .455-1.042 3.831 3.831 0 0 0 .643-2.487 3.676 3.676 0 0 0-1.609-1.922 5.172 5.172 0 0 1-.891-.778 5.212 5.212 0 0 1 .885-.777z"/><path d="m25.293 21.293 12-12 1.415 1.414-12 12zM35 18a3 3 0 1 0 3 3 3 3 0 0 0-3-3zm0 4a1 1 0 1 1 1-1 1 1 0 0 1-1 1zM29 14a3 3 0 1 0-3-3 3 3 0 0 0 3 3zm0-4a1 1 0 1 1-1 1 1 1 0 0 1 1-1zM40 42h2v2h-2z"/><path d="m63.447 43.105-6-3a1 1 0 0 0-1.293.361l-9.4 14.878-.051-.051A1 1 0 0 0 46 55H28.69a11.55 11.55 0 0 1-7.575-2.825L2.806 36.292A2.529 2.529 0 0 1 2 34.38 2.4 2.4 0 0 1 4.45 32a6.249 6.249 0 0 1 3.043.782 7.022 7.022 0 0 1 .853.579l13.029 10.42A1 1 0 0 0 22 44h16v-2H23.5a2.5 2.5 0 0 1-2.5-2.5 2.453 2.453 0 0 1 .736-1.762 2.639 2.639 0 0 1 .355-.294A2.4 2.4 0 0 1 23.5 37H42a8.69 8.69 0 0 1 6.123 2.537l4.171 4.171 1.414-1.414-4.171-4.171A10.687 10.687 0 0 0 42 35H23.5a4.431 4.431 0 0 0-1.952.449l-7.388-4.983a1.13 1.13 0 0 1 .146-.178A.957.957 0 0 1 15 30a5.87 5.87 0 0 1 3.153.913l6.171 3.931 1.076-1.687-6.171-3.931A7.865 7.865 0 0 0 15 28a2.94 2.94 0 0 0-2.118.883 3.025 3.025 0 0 0-.451.6A6.354 6.354 0 0 0 10 29h-.14a2.868 2.868 0 0 0-2.55 1.519A8.518 8.518 0 0 0 4.38 30 4.405 4.405 0 0 0 0 34.47a4.5 4.5 0 0 0 1.475 3.315l18.325 15.9A13.551 13.551 0 0 0 28.69 57h16.9l.077.077-1.509 2.389a1 1 0 0 0 .4 1.429l6 3A1 1 0 0 0 51 64h12a1 1 0 0 0 1-1V44a1 1 0 0 0-.553-.895zM9.86 31H10a4.471 4.471 0 0 1 2.444.715l.017.012.149.1 7.331 4.948A4.418 4.418 0 0 0 19 39.323L9.6 31.8a7.302 7.302 0 0 0-.509-.376l-.007-.006A.88.88 0 0 1 9.86 31zm40.778 30.7-4.2-2.1 10.924-17.3 4.2 2.1zM62 62h-9.186L62 47.456z"/></g></svg>