<svg xmlns="http://www.w3.org/2000/svg" viewBox="0 0 512 512"><g data-name="Fishing Toy"><path d="M405.197 264.447V256L320 320l-64 85.197h8.447a83.387 83.387 0 0 1 76.953 51.265H384l36.232-36.232 36.23-36.23v-42.6a83.39 83.39 0 0 1-51.265-76.953z" style="fill:#fed2e1"/><path d="M419.36 310.901a83.279 83.279 0 0 1-14.163-46.454v-4.034c.494 37.812-13.198 75.229-41.374 103.41-26.227 26.216-61.344 40.8-99.07 41.397a83.275 83.275 0 0 1 46.338 14.285A161.494 161.494 0 0 0 419.36 310.901z" style="fill:#fcafc9"/><ellipse cx="234.667" cy="384" rx="39.187" ry="66.18" transform="rotate(-18.415 234.667 384)" style="fill:#e41a67"/><path d="M234.667 128.447s42.666-43.114 128-43.114c64 0 85.333 21.334 85.333 42.667 0 42.667-64 85.333-64 85.333H234.667z" style="fill:#e41a67"/><path d="m293.656 147.708-11.333-18.073c1.833-1.145 45.823-28.26 132.687-36.333l1.98 21.25c-81.303 7.552-122.928 32.906-123.334 33.156z" style="fill:#f73478"/><path d="m335.438 169.542-9.542-19.084c1.77-.885 44.083-21.916 108.062-43.24l6.75 20.23c-62.437 20.823-104.854 41.885-105.27 42.094z" style="fill:#f73478"/><path d="m380.865 188.885-15.073-15.093c.916-.917 23.052-22.813 66.76-44.667l9.542 19.083c-40.344 20.167-61.021 40.48-61.23 40.677z" style="fill:#f73478"/><path d="m252.135 141.448-13.604-16.417c11.23-9.312 53.386-39.698 124.136-39.698C439.687 85.333 448 115.167 448 128h-21.333c0-10.27-20.032-21.333-64-21.333-63.615 0-100.677 26.625-110.532 34.78z" style="fill:#fa7ca7"/><path d="M448 128h-21.333c0-10.27-20.032-21.333-64-21.333V85.333C439.687 85.333 448 115.167 448 128z" style="fill:#fcafc9"/><ellipse cx="384" cy="234.667" rx="39.187" ry="66.18" transform="rotate(-71.585 384 234.667)" style="fill:#e41a67"/><path d="M445.13 259.381c-.162-.166-.255-.256-.255-.256-24.177-24.177-69.615-24.459-71.542-24.459l-.01 21.334c.366 0 36.846.309 55.208 17.026 7.6-3.081 13.382-7.728 16.6-13.645z" style="fill:#f73478"/><path d="m447.969 249.146-21.313-.98c.365-7.854-16.646-26.27-45.52-32.812a77.77 77.77 0 0 0-17.115-2.02V192a99.456 99.456 0 0 1 21.823 2.542c35.27 7.99 63.135 32.49 62.125 54.604z" style="fill:#fa7ca7"/><path d="M149.333 298.667v76.496a30.17 30.17 0 0 0 30.17 30.17 30.17 30.17 0 0 0 21.334-8.836l33.83-33.83z" style="fill:#e41a67"/><path d="M405.197 258.703V256l-.177.133c.035.857.156 1.713.177 2.57z" style="fill:#fcafc9"/><circle cx="373.333" cy="352" r="10.667" style="fill:#fb91b5"/><ellipse cx="256" cy="256" rx="146.121" ry="152.478" transform="rotate(-45 256 256)" style="fill:#f9578f"/><path d="M262.375 405.333c-41.063 0-80.02-16.333-109.698-46.01a156.642 156.642 0 0 1-45.073-93.49l42.417-4.583a113.877 113.877 0 0 0 32.823 67.906c21.625 21.604 49.864 33.51 79.531 33.51 27.26 0 52.573-10.301 71.281-29.01l30.167 30.167c-26.77 26.77-62.792 41.51-101.448 41.51z" style="fill:#f73478"/><path d="M402.398 233.26c-.002-.18-.009-.366-.014-.55a154.86 154.86 0 0 0-18.435-48.246c-.016.072-.033.144-.045.229-8.877 43.945-32.915 89.544-71.29 127.92-38.377 38.376-83.973 62.416-127.92 71.29a154.654 154.654 0 0 0 48.568 18.494c39.307-6.17 78.895-25.327 111.351-57.784 32.457-32.457 51.615-72.045 57.785-111.353z" style="fill:#fcafc9"/><ellipse cx="330.667" cy="202.667" rx="30.995" ry="68.741" transform="rotate(-45 330.667 202.667)" style="fill:#fed2e1"/><path d="M333.656 333.656c-18.708 18.709-44.02 29.01-71.281 29.01a109.158 109.158 0 0 1-15.241-1.53 233.036 233.036 0 0 1-62.44 22.768c-.084.011-.161.025-.244.037a154.854 154.854 0 0 0 48.497 18.49c.105-.012.21-.021.315-.034 39.307-6.17 78.895-25.327 111.351-57.784z" style="fill:#fa7ca7"/><path d="m151.917 304.917-15.084-15.084 18.75-18.75a51.503 51.503 0 0 0 0-72.833l15.084-15.083a72.829 72.829 0 0 1 0 103z" style="fill:#f73478"/><path d="M344.992 140.121c.015-.043.027-.084.041-.127q-6.128-4.82-12.59-8.945c-.016.043-.032.08-.047.124-16.051 34.741-39.395 68.796-69.912 99.311-42.53 42.53-92.052 71.399-140.588 85.54.05.101.102.203.151.305q.78 1.615 1.6 3.215c.26.509.532 1.014.799 1.521.348.662.695 1.323 1.053 1.98.316.579.64 1.154.963 1.73.329.587.66 1.172.996 1.755q.51.88 1.032 1.753.52.874 1.053 1.741.515.839 1.039 1.673c.402.637.813 1.271 1.226 1.905.313.481.625.963.944 1.442q.838 1.254 1.705 2.495c.187.268.368.539.556.806q2.466 3.495 5.15 6.898c43.383-12.138 88.658-38.428 127.655-77.425 39.073-39.073 65.105-84.252 77.174-127.697z" style="fill:#fed2e1"/><path d="M162.306 300.768a298.317 298.317 0 0 1-40.41 15.255 157.015 157.015 0 0 0 18.266 29.22c.289-.14.477-.191.53-.125a256.7 256.7 0 0 0 42.008-16.106 115.947 115.947 0 0 1-20.394-28.244z" style="fill:#fcafc9"/><ellipse cx="416" cy="416" rx="91.623" ry="52.456" transform="rotate(-45 416 416)" style="fill:#f9578f"/><path d="M386.615 487c-16.563-19.063-41.49-41.51-41.74-41.73l14.25-15.874c1.063.958 26.177 23.562 43.594 43.604z" style="fill:#fa7ca7"/><path d="M458.667 448c-48.698 0-72.552-46.583-73.542-48.563l19.063-9.572c.187.375 19.104 36.802 54.479 36.802z" style="fill:#f73478"/><path transform="rotate(-45 437.333 394.667)" style="fill:#f73478" d="M426.668 364.497h21.331v60.34h-21.331z"/><path d="M429.281 465.667c-12.906-14.865-48.146-33.98-60.635-40.084l9.375-19.166c1.99.968 48.969 24.083 67.364 45.25z" style="fill:#fb91b5"/><path transform="rotate(-45 458.667 373.333)" style="fill:#fb91b5" d="M448.001 343.163h21.331v60.34h-21.331z"/><path d="M378.135 490.667c-11.312 0-20.375-3.323-26.927-9.875-20.448-20.459-8.02-66.167 27.698-101.886l15.084 15.084c-32.157 32.156-35.167 64.25-27.698 71.718 2.406 2.407 6.396 3.625 11.843 3.625 17.344 0 40.844-12.291 59.875-31.323 32.157-32.156 35.167-64.25 27.698-71.718l15.084-15.084c20.448 20.459 8.02 66.167-27.698 101.886-23.521 23.531-51.552 37.573-74.959 37.573z" style="fill:#fb91b5"/><path d="M201.354 234.667c-14.479 0-27.708-5.25-37.24-14.782l15.084-15.083c13.667 13.667 41.594 9.646 59.73-8.542 18.822-18.812 22.655-45.604 8.54-59.729l15.084-15.083c22.427 22.437 18.594 62.77-8.542 89.896-14.812 14.823-34 23.323-52.656 23.323z" style="fill:#f73478"/><ellipse cx="213.333" cy="170.667" rx="48.269" ry="36.202" transform="rotate(-45 213.333 170.667)" style="fill:#fee6ee"/><ellipse cx="192" cy="170.667" rx="23.177" ry="19.314" transform="rotate(-45 192 170.667)" style="fill:#2b2c53"/><ellipse cx="181.333" cy="160" rx="11.588" ry="9.657" transform="rotate(-45 181.333 160)" style="fill:#fee6ee"/><path d="m94.17 222.17 12.497 12.497-12.497 12.496a30.17 30.17 0 0 0 0 42.667 30.17 30.17 0 0 0 42.667 0l18.745-18.745a51.503 51.503 0 0 0 15.085-36.418 51.503 51.503 0 0 0-15.085-36.419l-18.745-18.745a30.17 30.17 0 0 0-42.667 0 30.17 30.17 0 0 0 0 42.667z" style="fill:#e41a67"/><path d="M115.5 298.667A30.159 30.159 0 0 1 85.333 268.5h21.334a8.673 8.673 0 0 0 2.583 6.25 8.982 8.982 0 0 0 12.5 0L140.5 256l15.083 15.083-18.75 18.75a29.964 29.964 0 0 1-21.333 8.834zM140.5 213.333l-18.75-18.75A8.673 8.673 0 0 0 115.5 192v-21.333a29.964 29.964 0 0 1 21.333 8.833l18.75 18.75z" style="fill:#fa7ca7"/><path d="M149.333 170.667h-10.666c-12.865 0-32-8.521-32-32V128H128v10.667c0 8.593 5.865 10.541 10.792 10.666h10.541z" style="fill:#4a4b6c"/><path d="M85.333 213.333a42.709 42.709 0 0 1-42.666-42.666H64a21.333 21.333 0 0 0 42.667 0v-32H128v32a42.709 42.709 0 0 1-42.667 42.666z" style="fill:#4a4b6c"/><path style="fill:#4a4b6c" d="M42.667 117.333H64v53.333H42.667z"/><path style="fill:#2b2c53" d="M42.667 128H64v21.333H42.667z"/><path d="M53.333 128a32 32 0 1 1 32-32 32.035 32.035 0 0 1-32 32zm0-42.667A10.667 10.667 0 1 0 64 96a10.674 10.674 0 0 0-10.667-10.667z" style="fill:#4a4b6c"/><path style="fill:#5bcade" d="M42.667 21.333H64v64H42.667z"/><path style="fill:#ad004f" d="m96 224 10.667 10.667L96 245.333 106.667 256 128 234.667l-21.333-21.334L96 224z"/><path d="M320 362.667c-38.188 0-62.75-25.177-74-40.188l17.083-12.791c8.854 11.822 28.021 31.645 56.917 31.645 20.552 0 42.667-20.03 42.667-64H384c0 58.625-33.177 85.334-64 85.334z" style="fill:#f73478"/><path d="M256 288a36.017 36.017 0 0 1 7.083-21.69c9.472-12.643 28.444-31.643 56.917-31.643 42.667 0 42.667 42.666 42.667 42.666 0 42.667-21.334 64-42.667 64-28.473 0-47.445-19-56.917-31.642A36.017 36.017 0 0 1 256 288z" style="fill:#fb91b5"/><path d="M320 341.333c-27.469 0-46.115-17.208-56.917-31.656l17.084-12.77C288.052 307.436 301.354 320 320 320c8.854 0 21.333-13.219 21.333-42.604h21.334c0 41.979-21.47 63.937-42.667 63.937z" style="fill:#fa7ca7"/><path d="M330.667 341.333c-48.698 0-72.552-46.583-73.542-48.562l19.063-9.573c.187.375 19.104 36.802 54.479 36.802z" style="fill:#fcafc9"/><path d="M352 298.667c-66.5 0-90.375-21.959-92.875-24.459L274.083 259c.188.177 20.313 18.333 77.917 18.333z" style="fill:#fa7ca7"/><path d="m277.333 277.333-.01-21.333c13.625-.02 52.25-3.323 67.135-18.208l15.084 15.083c-23.771 23.77-76.302 24.458-82.209 24.458z" style="fill:#fcafc9"/><circle cx="181.333" cy="352" r="10.667" style="fill:#e41a67"/><circle cx="224" cy="330.667" r="10.667" style="fill:#f73478"/><circle cx="202.667" cy="373.333" r="10.667" style="fill:#e41a67"/><circle cx="330.667" cy="373.333" r="10.667" style="fill:#e41a67"/><circle cx="202.667" cy="245.333" r="10.667" style="fill:#f73478"/><circle cx="160" cy="160" r="10.667" style="fill:#f73478"/><circle cx="224" cy="266.667" r="10.667" style="fill:#fcafc9"/><circle cx="181.333" cy="309.333" r="10.667" style="fill:#fcafc9"/><circle cx="288" cy="224" r="10.667" style="fill:#fcafc9"/><circle cx="416" cy="330.667" r="10.667" style="fill:#fcafc9"/><circle cx="330.667" cy="394.667" r="10.667" style="fill:#fb91b5"/><circle cx="288" cy="138.667" r="10.667" style="fill:#f73478"/><circle cx="224" cy="117.333" r="10.667" style="fill:#f73478"/><circle cx="245.333" cy="373.333" r="10.667" style="fill:#f9578f"/><circle cx="160" cy="330.667" r="10.667" style="fill:#fb91b5"/></g></svg>