<svg version="1.1" id="Layer_1" xmlns="http://www.w3.org/2000/svg" x="0" y="0" viewBox="0 0 256 256" style="enable-background:new 0 0 256 256" xml:space="preserve"><style>.st1{fill:#3762cc}.st3{fill:#e0ebfc}.st4{fill:#4671c6}.st7{fill:#ffea92}</style><path class="st4" d="M246.161 150.278a2.858 2.858 0 0 0-3.397-2.192c-20.148 4.346-37.606 15.045-54.489 25.393-7.093 4.347-14.428 8.843-21.882 12.821-76.502 40.829-119.849 15.715-133.405-49.194-8.973-42.964 9.531-86.821 46.044-109.133a101.464 101.464 0 0 1 51.905-14.892c15.135-.148 29.696 2.933 43.329 9.153 11.123 5.074 47.262 36.283 44.184 48.12-.569 2.19-2.739 3.81-6.451 4.839v5.884c6.741-1.52 10.774-4.633 11.984-9.284 3.799-14.609-24.753-38.827-37.205-48.561-13.747-10.748-37.229-16.05-55.897-15.868A107.19 107.19 0 0 0 76.05 23.095c-38.57 23.569-58.125 69.856-48.659 115.18 4.926 23.588 16.665 54.448 44.612 67.515 8.735 4.084 18.448 6.123 29.108 6.122 19.563-.001 42.305-6.869 67.972-20.568 7.604-4.058 15.013-8.599 22.178-12.99 17.234-10.562 33.511-20.538 52.706-24.678a2.861 2.861 0 0 0 2.194-3.398z"/><path d="M8 221.537c19.999 0 19.999 4.015 39.997 4.015 19.999 0 19.999-4.015 39.998-4.015 20 0 20 4.015 40 4.015 19.999 0 19.999-4.015 39.998-4.015 20.002 0 20.002 4.015 40.004 4.015s20.002-4.015 40.004-4.015v21.082a6.023 6.023 0 0 1-6.023 6.023H14.023A6.023 6.023 0 0 1 8 242.619v-21.082z" style="fill:#a4c9ff"/><path class="st1" d="M241.978 250.642H14.022c-4.424 0-8.022-3.599-8.022-8.022v-21.082a2 2 0 0 1 2-2c10.198 0 15.38 1.041 20.392 2.047 5.042 1.012 9.805 1.968 19.605 1.968 9.801 0 14.563-.956 19.605-1.968 5.012-1.006 10.194-2.047 20.392-2.047 10.199 0 15.381 1.041 20.394 2.047 5.042 1.012 9.805 1.968 19.606 1.968s14.563-.956 19.605-1.968c5.012-1.006 10.194-2.047 20.393-2.047s15.383 1.041 20.395 2.047c5.043 1.012 9.806 1.968 19.608 1.968s14.565-.956 19.608-1.968c5.013-1.006 10.196-2.047 20.396-2.047a2 2 0 0 1 2 2v21.082c.001 4.423-3.598 8.022-8.021 8.022zM10 223.551v19.068a4.027 4.027 0 0 0 4.022 4.022h227.955a4.027 4.027 0 0 0 4.022-4.022v-19.068c-8.476.121-12.921 1.013-17.608 1.954-5.013 1.006-10.196 2.047-20.396 2.047s-15.383-1.041-20.396-2.047c-5.043-1.012-9.806-1.968-19.608-1.968-9.801 0-14.563.956-19.606 1.968-5.012 1.006-10.194 2.047-20.393 2.047s-15.381-1.041-20.393-2.047c-5.042-1.012-9.805-1.968-19.606-1.968-9.8 0-14.563.956-19.605 1.968-5.012 1.006-10.194 2.047-20.393 2.047s-15.38-1.041-20.392-2.047c-4.685-.941-9.129-1.833-17.603-1.954z"/><circle cx="186.289" cy="25.124" r="9.911" style="fill:#f9a7a7"/><path d="M212.128 74.848c-18.146-.569-39.295-6.796-41.369-24.551l-1.824.078c-9.669.41-16.335-7.55-19.039-16.635l-1.536-.765-2.034.765c-.413 11.929 4.22 24.961 13.506 33.848 11.487 10.994 29.132 15.64 52.445 13.809a1.965 1.965 0 0 0 1.811-2.002l-.056-2.625a1.965 1.965 0 0 0-1.904-1.922z" style="fill:#f9cfcf"/><path class="st1" d="M202.722 83.785c-19.163 0-34.027-4.946-44.273-14.752-9.301-8.902-14.58-22.122-14.122-35.362a2 2 0 0 1 1.294-1.802l2.034-.766a1.99 1.99 0 0 1 1.596.082l1.536.765c.496.247.867.688 1.025 1.22 2.263 7.605 7.934 15.583 17.037 15.208l1.824-.078a1.997 1.997 0 0 1 2.071 1.766c2.344 20.067 30.784 22.512 39.445 22.784a3.966 3.966 0 0 1 3.841 3.88l.057 2.624a3.968 3.968 0 0 1-3.655 4.038 125.1 125.1 0 0 1-9.71.393zm-54.421-48.452c.036 11.46 4.905 23.145 12.913 30.81 11.057 10.583 28.184 15.041 50.905 13.26l-.087-2.557c-9.249-.294-38.883-2.946-42.979-24.475l-.035.001c-10.976.488-17.818-8.312-20.717-17.039zm63.764 41.514h.01-.01zM186.289 37.036c-6.568 0-11.912-5.343-11.912-11.911s5.344-11.912 11.912-11.912S198.2 18.557 198.2 25.125s-5.343 11.911-11.911 11.911zm0-19.823c-4.362 0-7.912 3.549-7.912 7.912s3.549 7.911 7.912 7.911 7.911-3.549 7.911-7.911-3.549-7.912-7.911-7.912z"/><path class="st7" d="M85.995 211.799a13.384 13.384 0 0 0-9.24-3.363l-22.825.618c-7.117.193-11.341-7.884-7.123-13.62 7.649-10.399 18.511-19.051 32.024-25.51 1.851-1.404 3.731-2.056 6.026-1.22l20.47 7.451c3.39 1.234 3.58 4.244 4.062 5.318 6.038 13.463 8.719 26.895 7.904 39.616-.455 7.105-8.883 10.577-14.211 5.855l-17.087-15.145z"/><path class="st1" d="M108.733 231.107c-2.523 0-5-.915-6.977-2.667l-17.087-15.145c-2.169-1.923-4.96-2.953-7.859-2.86l-22.825.618c-4.072.126-7.755-2.059-9.638-5.659a10.484 10.484 0 0 1 .85-11.145c7.843-10.664 18.81-19.426 32.596-26.045 2.573-1.89 5.109-2.341 7.749-1.38l20.471 7.451c3.698 1.346 4.598 4.382 5.03 5.841.063.214.111.401.172.539 6.197 13.815 8.914 27.463 8.075 40.562a10.484 10.484 0 0 1-6.513 9.084 10.597 10.597 0 0 1-4.044.806zm-21.411-20.805 17.087 15.145c1.917 1.7 4.477 2.131 6.844 1.155 2.369-.976 3.88-3.084 4.044-5.641.797-12.443-1.805-25.454-7.733-38.67a8.067 8.067 0 0 1-.357-1.039c-.444-1.5-.889-2.609-2.563-3.219l-20.47-7.451c-1.413-.515-2.57-.252-4.133.935a1.976 1.976 0 0 1-.346.211c-13.27 6.342-23.792 14.716-31.275 24.89-1.518 2.063-1.715 4.651-.528 6.921s3.419 3.565 5.985 3.515l22.825-.619a15.379 15.379 0 0 1 10.62 3.867z"/><path d="M145.243 64.021a.976.976 0 0 0-1.473.154l-8.513 12.412c-.539.786-1.769.403-1.768-.549l.024-16.253a.976.976 0 0 0-.814-.966c-22.926-3.632-48.674 15.835-59.89 46.649-8.921 24.509-6.181 49.427 5.323 64.616 2.934 3.873 3.765 9.136.903 14.192l-2.449 4.327a3.876 3.876 0 0 0 2.047 5.551l15.103 5.497c2.252.82 4.7-.58 5.137-2.937.781-4.219 1.098-11.419 8.749-14.219 13.806-5.051 29.328-24.411 38.735-50.259 10.795-29.655 9.937-57.949-1.114-68.215z" style="fill:#6bdddd"/><path class="st1" d="M95.063 201.886a5.891 5.891 0 0 1-2.011-.355l.019-.053c-.554-.142-1.197-.376-1.942-.647l-4.425-1.611-8.752-3.185c-1.63-.594-2.907-1.865-3.506-3.49s-.454-3.42.399-4.927l2.45-4.327c2.264-4 1.988-8.374-.757-11.999-12.233-16.151-14.434-42.257-5.607-66.508 11.335-31.143 38.026-51.745 62.082-47.941a2.96 2.96 0 0 1 2.501 2.943l-.02 12.918 6.626-9.662a2.97 2.97 0 0 1 2.12-1.271 2.988 2.988 0 0 1 2.364.783c11.987 11.136 12.659 40.071 1.633 70.366-9.397 25.82-25.07 46.017-39.928 51.453-5.746 2.102-6.564 7.167-7.222 11.238a62.328 62.328 0 0 1-.248 1.466 5.865 5.865 0 0 1-2.863 4.032 5.84 5.84 0 0 1-2.913.777zm32.078-141.501c-20.747 0-42.595 18.687-52.452 45.768-8.374 23.007-6.397 47.628 5.037 62.725 3.7 4.885 4.092 11.01 1.05 16.385l-2.449 4.327c-.373.658-.24 1.268-.127 1.573s.407.855 1.118 1.114l8.755 3.186 6.346 2.31a1.86 1.86 0 0 0 1.575-.133c.282-.162.776-.543.914-1.288.079-.429.153-.891.232-1.375.691-4.282 1.849-11.449 9.796-14.357 13.583-4.97 28.671-24.688 37.543-49.064 10.047-27.605 10.08-54.658.242-65.229l-7.814 11.393a2.953 2.953 0 0 1-3.329 1.156 2.955 2.955 0 0 1-2.088-2.84l.023-15.367a33.447 33.447 0 0 0-4.372-.284zm16.741 5.101.002.002-.002-.002z"/><path class="st7" d="m100.674 133.166-12.152.329c-3.789.103-6.038-4.198-3.792-7.251 4.072-5.536 9.855-10.143 17.05-13.582.988-.75 1.989-1.093 3.208-.65 14.383 5.235 11.769 3.918 13.061 6.798 3.215 7.168 4.642 14.319 4.208 21.092-.242 3.783-4.729 5.631-7.566 3.117-9.442-8.367-10.384-9.951-14.017-9.853zM150.342 119.392l-.011.018a138.065 138.065 0 0 1-3.973 12.827 139.461 139.461 0 0 1-2.841 7.165c1.98 1.537 3.431 4.222 4.423 6.721.706 1.777 3.242 1.72 3.896-.077a29.551 29.551 0 0 0 .863-17.422l-2.357-9.232z"/><path class="st3" d="m107.836 93.721-4.392-2.169c-4.777-2.359-6.744-8.165-4.385-12.942a9.605 9.605 0 0 1 8.668-5.385c2.809 0 4.207.967 8.666 3.169a9.598 9.598 0 0 1 4.873 5.563c2.725 8.045-5.641 15.61-13.43 11.764z"/><path class="st4" d="M116.564 87.255a5.207 5.207 0 0 1-6.976 2.363l-3.953-1.952a5.208 5.208 0 1 1 4.613-9.339l3.953 1.952a5.208 5.208 0 0 1 2.363 6.976z"/><path class="st1" d="M117.697 146.173a6.519 6.519 0 0 1-4.333-1.656 607.463 607.463 0 0 1-4.316-3.87c-5.527-4.993-6.197-5.532-8.32-5.482l-12.152.329a6.515 6.515 0 0 1-5.986-3.514 6.512 6.512 0 0 1 .528-6.921c4.254-5.783 10.184-10.532 17.627-14.119 1.597-1.145 3.253-1.417 4.926-.807 1.938.705 3.566 1.291 4.937 1.785 7.773 2.797 8.239 2.965 8.964 5.256.069.219.151.483.301.819 3.362 7.497 4.836 14.912 4.38 22.039a6.51 6.51 0 0 1-4.045 5.641c-.816.336-1.668.5-2.511.5zm-16.706-15.011c3.523 0 5.158 1.477 10.738 6.517a571.329 571.329 0 0 0 4.288 3.845 2.506 2.506 0 0 0 2.667.45 2.506 2.506 0 0 0 1.576-2.199c.415-6.471-.944-13.249-4.037-20.146a10.88 10.88 0 0 1-.465-1.248c-.024-.076-.043-.145-.065-.208-.566-.378-2.82-1.189-6.44-2.492-1.375-.495-3.007-1.083-4.95-1.79-.277-.101-.564-.206-1.315.364a2.038 2.038 0 0 1-.346.211c-6.924 3.309-12.408 7.67-16.301 12.962a2.507 2.507 0 0 0-.206 2.697 2.51 2.51 0 0 0 2.333 1.37l12.152-.329c.126-.002.25-.004.371-.004zm-.317 2.005h.01-.01zM149.861 149.425c-1.68 0-3.159-1-3.78-2.563-1.103-2.778-2.414-4.811-3.79-5.879a2 2 0 0 1-.613-2.367 135.787 135.787 0 0 0 2.8-7.062 136.355 136.355 0 0 0 3.916-12.641 2.014 2.014 0 0 1 2.247-1.488 2 2 0 0 1 1.639 1.473l2.357 9.232a31.44 31.44 0 0 1-.922 18.601 4.066 4.066 0 0 1-3.792 2.694h-.062zm-3.952-10.547c1.48 1.544 2.785 3.726 3.89 6.507.027.039.074.047.116.031a27.323 27.323 0 0 0 .847-16.298l-.531-2.079a140.602 140.602 0 0 1-1.994 5.881 141.14 141.14 0 0 1-2.328 5.958z"/><path class="st7" d="M72.81 105.468c2.85-7.831 6.642-14.924 11.084-21.096l.001-.008c-12.046 14.167-20.552 22.682-26.925 40.192-.894 2.457 1.425 4.84 3.918 4.052 2.898-.916 4.484-1.142 6.939-.908.634-7.258 2.264-14.763 4.983-22.232z"/><path class="st1" d="M59.912 130.761a5.121 5.121 0 0 1-3.71-1.591 5.092 5.092 0 0 1-1.111-5.297c5.743-15.779 13.046-24.257 23.153-35.99 1.328-1.542 2.703-3.138 4.128-4.813a2 2 0 0 1 3.508 1.544 2.043 2.043 0 0 1-.362.928c-4.465 6.204-8.108 13.139-10.828 20.612-2.594 7.128-4.233 14.436-4.87 21.722a2.003 2.003 0 0 1-2.181 1.817c-2.137-.205-3.457-.026-6.146.824a5.32 5.32 0 0 1-1.581.244zm12.397-29.537c-5.422 6.94-9.798 13.958-13.459 24.017a1.093 1.093 0 0 0 .241 1.162c.15.156.568.497 1.195.299 2.372-.75 3.977-1.073 5.739-1.089.772-6.998 2.419-13.995 4.907-20.829a90.66 90.66 0 0 1 1.377-3.56zM202.722 83.785c-19.163 0-34.027-4.946-44.273-14.752-9.301-8.902-14.58-22.122-14.122-35.362a2 2 0 0 1 1.294-1.802l2.034-.766a1.99 1.99 0 0 1 1.596.082l1.536.765c.496.247.867.688 1.025 1.22 2.263 7.605 7.934 15.583 17.037 15.208l1.824-.078a1.997 1.997 0 0 1 2.071 1.766c2.344 20.067 30.784 22.512 39.445 22.784a3.966 3.966 0 0 1 3.841 3.88l.057 2.624a3.968 3.968 0 0 1-3.655 4.038 125.1 125.1 0 0 1-9.71.393zm-54.421-48.452c.036 11.46 4.905 23.145 12.913 30.81 11.057 10.583 28.184 15.041 50.905 13.26l-.087-2.557c-9.249-.294-38.883-2.946-42.979-24.475l-.035.001c-10.976.488-17.818-8.312-20.717-17.039zm63.764 41.514h.01-.01z"/><path class="st3" d="M165.559 199.76c-10.694 3.927-20.473 8.065-27.999 14.29h.001c-5.82 4.726-12.375 12.091-17.821 21.128.537-.04 1.089-.092 1.673-.169 1.719-.229 3.181-.57 4.467-.989 11.439-10.481 33.134-25.989 45.343-16.591 4.694 3.614 11.258-.031 10.972-5.754-.07-1.759-.669-3.249-.644-3.185a20.062 20.062 0 0 1 3.489 2.127c4.859 3.741 11.725-.296 10.918-6.366-1.636-12.311-18.82-8.619-30.399-4.491z"/><path class="st1" d="M119.74 237.178a2 2 0 0 1-1.712-3.033c5.183-8.6 11.672-16.288 18.273-21.648 7.494-6.199 16.151-10.054 28.568-14.615l.018-.006c9.006-3.21 21.187-6.156 28.069-1.954 2.826 1.725 4.503 4.439 4.985 8.067.485 3.647-1.183 7.049-4.352 8.878-3.005 1.736-6.563 1.576-9.394-.39-.148 3.113-1.913 5.895-4.751 7.38-3.065 1.604-6.682 1.281-9.441-.843-12.818-9.869-37.878 11.996-42.771 16.48-.21.193-.46.338-.731.427-2.005.653-4.229 1.074-6.612 1.251-.05.004-.099.006-.149.006zm46.499-35.537c-12.293 4.515-20.302 8.076-27.404 13.951-5.227 4.246-10.566 10.28-15.041 16.943.363-.089.718-.186 1.065-.291 7.852-7.134 32.83-27.76 47.584-16.4 1.531 1.179 3.454 1.354 5.146.469 1.335-.699 2.723-2.259 2.608-4.538-.052-1.321-.5-2.532-.519-2.583a2.004 2.004 0 0 1 1.153-2.57 1.992 1.992 0 0 1 1.636.09 22.245 22.245 0 0 1 3.793 2.321c1.601 1.233 3.593 1.371 5.329.369 1.363-.787 2.706-2.483 2.387-4.886-.32-2.406-1.335-4.1-3.105-5.18-4.253-2.597-13.231-1.758-24.632 2.305z"/><path class="st3" d="M9.275 163.373c-3.264 4.239.165 10.295 5.477 9.589a17.552 17.552 0 0 1 3.57-.084c.162-.129-1.014.759-1.88 2.128-2.718 4.204.655 9.831 5.786 9.15.351-.047.837-.095 1.207-.095 13.463.943 21.627 19.083 25.843 32.47 1.221 1.359 2.654 2.548 4.139 3.561-.17-9.218-1.909-17.655-4.246-23.775l.001.001c-3.557-9.573-10.008-16.675-10.928-17.952-1.315-1.872-3.038-3.937-4.006-5.099-6.955-8.186-18.341-18.492-24.963-9.894z"/><path class="st1" d="M53.416 222.091c-.395 0-.788-.117-1.126-.348-1.742-1.187-3.256-2.491-4.5-3.876a1.994 1.994 0 0 1-.42-.736c-3.527-11.2-11.329-30.105-23.996-31.069a8.856 8.856 0 0 0-.881.077c-3.116.41-6.09-.967-7.76-3.605-1.464-2.312-1.652-5.098-.566-7.519-2.928.094-5.592-1.376-7.084-3.962-1.65-2.86-1.417-6.27.608-8.899 2-2.597 4.521-3.95 7.492-4.021 7.175-.165 15.134 7.43 20.579 13.838 1.054 1.264 2.766 3.317 4.119 5.245.104.144.323.412.62.778 2.018 2.49 7.38 9.106 10.546 17.627 2.653 6.95 4.207 15.634 4.369 24.434a1.998 1.998 0 0 1-2 2.036zm-2.366-6.589.155.162c-.513-6.742-1.884-13.35-3.902-18.635-2.943-7.922-8.004-14.167-9.91-16.519a27.254 27.254 0 0 1-.772-.978c-1.272-1.812-2.917-3.786-3.901-4.965-6.806-8.01-13.177-12.5-17.44-12.438-1.73.042-3.175.848-4.42 2.463l-1.584-1.22 1.584 1.22c-1.216 1.579-.958 3.339-.312 4.46.822 1.425 2.292 2.146 3.941 1.926a19.66 19.66 0 0 1 3.822-.107c.107-.007.218 0 .328.017.786.12 1.426.694 1.63 1.463a2.028 2.028 0 0 1-.703 2.092l-.02.016a7.661 7.661 0 0 0-1.414 1.615c-1.028 1.591-.683 3.271-.02 4.318.837 1.324 2.272 1.989 3.852 1.78.249-.034.895-.112 1.464-.113.06-.003.097.001.145.005 14.187.996 22.757 18.629 27.477 33.438zm-33.973-44.189.01.013-.01-.013z"/></svg>