<svg xmlns="http://www.w3.org/2000/svg" viewBox="0 0 100 100" xml:space="preserve"><path fill="#C0321F" d="m37.714 72.76-2.374-2.91a5.865 5.865 0 0 0 .942-3.207c0-3.159-2.453-5.721-5.48-5.721-3.028 0-5.481 2.561-5.481 5.721s2.454 5.722 5.481 5.722c.932 0 1.796-.266 2.565-.694l2.342 2.873c.414.508 1.198.52 1.753.027.553-.491.666-1.303.252-1.811z"/><path fill="#39485D" d="m30.537 69.961-.462-.225 8.463-18.844c.918-.769 22.535-18.857 27.3-19.922l9.298-.006.059.036 12.202 7.441-.257.459-12.142-7.405H65.89c-4.492 1.011-25.84 18.817-26.986 19.774l-8.367 18.692z"/><path fill="#D24D18" d="M70.904 25.109c-24.983 2.129-60.927 44.71-60.927 44.71l5.098 4.258a401.417 401.417 0 0 1 4.68-5.55 6.318 6.318 0 0 1-.395-2.196c0-3.381 2.754-6.257 5.993-6.257.58 0 1.14.091 1.669.254 3.752-4.1 7.226-7.663 10.451-10.79l1.146 1.601.953-.743-1.221-1.707c4.514-4.324 8.504-7.736 12.017-10.443l1.598 2.233.951-.744-1.592-2.225c5.825-4.383 10.253-6.746 13.444-8.01l.236 1.853 1.178-.164-.269-2.113c3.712-1.291 5.408-.956 5.408-.956a15.007 15.007 0 0 1 4 .328l-.486 2.737 1.122.411.517-2.842c9.475 2.94 12.874 14.912 12.874 14.912l.674.072s-3.059-19.692-19.119-18.629z"/></svg>