<svg version="1.1" id="Layer_1" xmlns="http://www.w3.org/2000/svg" x="0" y="0" viewBox="0 0 64 64" style="enable-background:new 0 0 64 64" xml:space="preserve"><style></style><path style="fill:#edd4c2" d="M11 22h42v42H11z"/><path style="fill:#cfb6a4" d="M11 62h42v2H11z"/><path style="fill:#6770e6" d="M32 0 0 7v57h11V22h42v42h11V7z"/><path class="st4" d="m0 14 32-7 32 7V7L32 0 0 7z"/><path style="fill:#ea82fa" d="M32 0 0 7v2l32-7 32 7V7z"/><path fill="#d476e2" d="M31 64H17a1 1 0 0 1-1-1V49a1 1 0 0 1 1-1h14a1 1 0 0 1 1 1v14a1 1 0 0 1-1 1z"/><path fill="#5861c7" d="M22 48h4v5h-4z"/><path  fill="#ffefe4" d="M18 59h6v3h-6z"/><path fill="#b665c2" d="M31 62H17a1 1 0 0 1-1-1v2a1 1 0 0 0 1 1h14a1 1 0 0 0 1-1v-2a1 1 0 0 1-1 1z"/><path fill="#d476e2" d="M47 64H33a1 1 0 0 1-1-1V49a1 1 0 0 1 1-1h14a1 1 0 0 1 1 1v14a1 1 0 0 1-1 1z"/><path fill="#5861c7" d="M38 48h4v5h-4z"/><path  fill="#ffefe4" d="M34 59h6v3h-6z"/><path fill="#b665c2" d="M47 62H33a1 1 0 0 1-1-1v2a1 1 0 0 0 1 1h14a1 1 0 0 0 1-1v-2a1 1 0 0 1-1 1z"/><path fill="#d476e2" d="M39 48H25a1 1 0 0 1-1-1V33a1 1 0 0 1 1-1h14a1 1 0 0 1 1 1v14a1 1 0 0 1-1 1z"/><path fill="#5861c7" d="M30 32h4v5h-4z"/><path  fill="#ffefe4" d="M26 43h6v3h-6z"/><path fill="#b665c2" d="M39 46H25a1 1 0 0 1-1-1v2a1 1 0 0 0 1 1h14a1 1 0 0 0 1-1v-2a1 1 0 0 1-1 1z"/><path style="fill:#ff8354" d="M11 18h42v4H11z"/><path fill="#e0734a" d="M11 18h2v4h-2z"/><path fill="#e0734a" d="M11 18h2v4h-2zM51 18h2v4h-2z"/><path  fill="#5fd4e3" d="M11 24h42v1H11z"/><path fill="#69ebfc" d="M11 22h42v2H11z"/><path  fill="#5fd4e3" d="M11 27h42v1H11z"/><path fill="#69ebfc" d="M11 25h42v2H11z"/><path fill="#5861c7" d="M0 62h11v2H0zM53 62h11v2H53z"/></svg>