<svg xmlns="http://www.w3.org/2000/svg" viewBox="0 0 1000 1000" xml:space="preserve"><switch><g><path fill="#122436" d="M764.5 666h-20V381.7L503.3 242.4 262 381.7v241.7h-20V370.1l261.3-150.8 261.2 150.8z"/><circle fill="#4EA4DB" cx="504" cy="374.8" r="169.1"/><path fill="#FFF" d="M504 241.7c87.3 0 159.2 66.2 168.1 151.1.6-5.9 1-11.9 1-18 0-93.4-75.7-169.1-169.1-169.1s-169.1 75.7-169.1 169.1c0 6.1.3 12.1 1 18 8.9-84.9 80.8-151.1 168.1-151.1z"/><path fill="#122436" d="M504 553.9c-98.8 0-179.1-80.3-179.1-179.1S405.2 195.7 504 195.7 683.1 276 683.1 374.8 602.8 553.9 504 553.9zm0-338.2c-87.7 0-159.1 71.4-159.1 159.1S416.3 533.9 504 533.9c87.7 0 159.1-71.4 159.1-159.1S591.7 215.7 504 215.7z"/><path fill="#FFF" d="M481.4 299.8h43.8v150h-43.8z"/><path fill="#FFF" d="M578.288 352.981v43.8h-150v-43.8zM296.8 816.5H206c-2.8 0-5-2.2-5-5v-183c0-2.8 2.2-5 5-5h90.8c2.8 0 5 2.2 5 5v183c0 2.7-2.2 5-5 5z"/><path fill="#FFF" d="m301.8 793.4 221.4 54.7c7.7 1.9 15.9 1.2 23.2-2L772 746.3c22.5-9.9 32.9-36 23.5-58.7-9-21.7-33-32.9-55.3-25.9l-177.6 55.6-85 2.6 53.8 8.1c17.9 2.7 35-8.3 39.9-25.7 5.5-19.5-6.2-39.8-25.9-44.7l-125.6-31.4c-7.4-1.8-15.2-1.3-22.3 1.6l-95.7 38.8v126.8z"/><path fill="#4EA4DB" d="M201 664h100.8v152.5H201z"/><path fill="#FFF" d="M301 785.1h-20v-20h20v20zm-40 0h-20v-20h20v20zm-40 0h-20v-20h20v20z"/><path fill="#FFCD35" d="m301.8 712.4 100.3-44c6.6-2.9 14-3.7 21.1-2.2l149.1 30.5s-9.3 36.2-49.2 30.2c-22.5-3.4-45.6-6.9-45.6-6.9l2.7 9.9c4.7 17.7 18.3 31.7 35.8 37 10.7 3.3 22.1 3 32.6-.7l243-86s26.9 34.7-19.6 66.2-236.9 102.8-236.9 102.8l-226.3-54-7-82.8z"/><path fill="#122436" d="M296.8 826.5H206c-8.3 0-15-6.7-15-15v-183c0-8.3 6.7-15 15-15h90.8c8.3 0 15 6.7 15 15v183c0 8.2-6.7 15-15 15zm-85.8-20h80.8v-173H211v173z"/><path fill="#122436" d="M536.7 738.5c-2.3 0-4.5-.2-6.8-.5l-53.8-8.1 3-19.8 53.8 8.1c12.9 1.9 25.3-6 28.8-18.6 1.9-6.8 1-13.9-2.5-20.1-3.5-6.1-9.3-10.5-16.2-12.2L417.4 636c-5.4-1.3-10.9-1-16.1 1.1l-95.7 38.8-7.5-18.5 95.7-38.8c9.1-3.7 18.9-4.4 28.4-2L547.8 648c12.2 3 22.3 10.7 28.6 21.6 6.3 10.9 7.9 23.5 4.4 35.6-5.6 19.8-23.9 33.3-44.1 33.3z"/><path fill="#122436" d="M531.9 859.1c-3.7 0-7.4-.4-11-1.3l-221.4-54.7 4.8-19.4 221.4 54.7c5.6 1.4 11.5.9 16.8-1.5L768 737.2c17.6-7.8 25.7-27.9 18.3-45.7-7-17-25.6-25.7-43.1-20.2l-177.6 55.6-6-19.1 177.6-55.6c13.2-4.1 27.4-3.2 39.9 2.7s22.4 16.1 27.6 28.9c5.5 13.4 5.6 28.2.2 41.7-5.4 13.5-15.7 24.1-28.9 30l-225.6 99.7c-5.8 2.6-12.2 3.9-18.5 3.9z"/><g><circle fill="#122436" cx="251.4" cy="664" r="16.2"/></g><g><path fill="#122436" d="m290.5 360.4-20-1.3c.5-6.9 1.2-13.9 2.3-20.7l19.8 3.1c-1 6.2-1.7 12.6-2.1 18.9zm5.9-37.7-19.4-4.9c1.7-6.7 3.7-13.5 6-20l18.9 6.6c-2.1 6-3.9 12.2-5.5 18.3zm12.6-36-18.2-8.2c2.9-6.3 6-12.6 9.5-18.6l17.4 9.8c-3.2 5.5-6.1 11.2-8.7 17zM693.3 275c-3-5.6-6.2-11.1-9.7-16.5l16.8-10.9c3.8 5.8 7.3 11.9 10.6 18l-17.7 9.4zm-365.6-21.5-16.5-11.4c3.9-5.7 8.2-11.3 12.6-16.6l15.4 12.8c-4 4.8-7.9 10-11.5 15.2zM672.5 243c-3.9-5-8.1-9.9-12.4-14.5l14.6-13.7c4.7 5.1 9.3 10.4 13.6 15.8L672.5 243zm-320.4-18.9L337.9 210c4.9-4.9 10-9.7 15.3-14.2l12.9 15.3c-4.8 4.2-9.5 8.5-14 13zm294.3-8.9c-4.7-4.2-9.7-8.3-14.8-12.1l11.9-16c5.6 4.1 11 8.6 16.2 13.2l-13.3 14.9zm-265.1-15.7-11.5-16.4c5.7-4 11.6-7.8 17.6-11.2l10 17.3c-5.5 3.2-10.9 6.7-16.1 10.3zm234.5-7.1c-5.4-3.3-11-6.4-16.7-9.3l8.9-17.9c6.2 3.1 12.4 6.5 18.3 10.1l-10.5 17.1zm-201.4-11.9-8.4-18.2c6.3-2.9 12.8-5.6 19.3-7.9l6.7 18.8c-5.9 2.2-11.9 4.6-17.6 7.3zm167.2-5.1c-5.9-2.3-12-4.4-18.1-6.1l5.6-19.2c6.7 1.9 13.3 4.2 19.8 6.7l-7.3 18.6zm-131.3-7.7-5-19.4c6.7-1.7 13.6-3.2 20.4-4.3l3.2 19.7c-6.2 1-12.5 2.4-18.6 4zm94.7-2.9c-6.2-1.2-12.6-2.1-18.9-2.8l2-19.9c6.9.7 13.9 1.7 20.7 3.1l-3.8 19.6zm-57.1-3.3-1.5-19.9c6.9-.5 13.9-.7 20.9-.6l-.3 20c-6.3-.2-12.8 0-19.1.5z"/></g><g><path fill="#122436" d="m290.5 360.4-20-1.3c3.9-59.1 30-114.1 73.3-154.8 43.5-40.9 100.4-63.4 160.2-63.4v20c-112.3 0-206.1 87.6-213.5 199.5z"/></g><g><path fill="#122436" d="M504 608.8c-4.8 0-9.6-.1-14.4-.4l1.2-20c6.3.4 12.8.5 19.1.3l.5 20c-2.1.1-4.2.1-6.4.1zm27.3-1.6-2.3-19.9c6.3-.7 12.6-1.8 18.8-3l4.1 19.6c-6.8 1.4-13.7 2.5-20.6 3.3zm-62.5-1c-6.9-1-13.8-2.4-20.5-4l4.7-19.4c6.2 1.5 12.5 2.7 18.7 3.7l-2.9 19.7zm103.3-7.5-5.8-19.1c6.1-1.8 12.1-4 18-6.4l7.5 18.5c-6.4 2.7-13.1 5-19.7 7zm-143.8-2.4c-6.6-2.2-13.1-4.8-19.4-7.6l8.1-18.3c5.8 2.6 11.8 4.9 17.8 7l-6.5 18.9zm182.5-13.2-9.1-17.8c5.6-2.9 11.2-6.1 16.6-9.5l10.7 16.9c-6 3.7-12.1 7.2-18.2 10.4zm-220.7-3.8c-6.1-3.4-12-7.1-17.8-11l11.3-16.5c5.2 3.6 10.7 7 16.2 10l-9.7 17.5zM646 560.8l-12.2-15.9c5-3.9 10-8 14.6-12.3l13.5 14.7c-5 4.7-10.4 9.3-15.9 13.5zm-290.4-5c-5.4-4.4-10.6-9.1-15.5-14l14-14.3c4.5 4.4 9.3 8.7 14.2 12.8l-12.7 15.5zm321.2-23.2L662 519.1c4.3-4.7 8.4-9.6 12.2-14.7l15.9 12.1c-4.1 5.6-8.6 11-13.3 16.1zm-350.9-6.1c-4.5-5.3-8.8-10.8-12.8-16.5l16.3-11.6c3.7 5.2 7.6 10.2 11.7 15.1l-15.2 13zm376.2-27.1-16.9-10.7c3.4-5.4 6.6-11 9.4-16.6l17.8 9.1c-3.1 6.2-6.6 12.3-10.3 18.2zm-400.4-6.9c-3.5-6-6.8-12.2-9.7-18.5l18.1-8.5c2.7 5.7 5.7 11.4 8.9 16.9l-17.3 10.1zm419.4-30.3-18.6-7.5c2.4-5.9 4.5-11.9 6.3-18l19.1 5.8c-1.9 6.7-4.2 13.3-6.8 19.7zm12-39.9-19.6-4c1.3-6.2 2.3-12.5 3-18.9l19.9 2.3c-.7 6.9-1.9 13.8-3.3 20.6zm4.8-41.5-20-.5c0-1.8.1-3.7.1-5.5 0-4.5-.1-9.1-.4-13.6l20-1.3c.3 4.9.5 9.9.5 14.9-.1 2-.2 4.1-.2 6z"/></g><g><path fill="#122436" d="M504 608.8v-20c118 0 214-96 214-214 0-4.5-.1-9.1-.4-13.6l20-1.3c.3 4.9.5 9.9.5 14.9 0 62.5-24.3 121.3-68.5 165.4-44.4 44.3-103.1 68.6-165.6 68.6z"/></g></g></switch></svg>