<svg version="1.1" id="Icon_Set" xmlns="http://www.w3.org/2000/svg" x="0" y="0" viewBox="0 0 512 512" style="enable-background:new 0 0 512 512" xml:space="preserve"><style>.st1{fill:#fd919e}.st2{fill:#4c4372}</style><g id="Thermometer"><circle cx="256" cy="256" r="207" style="fill:#f0c48a"/><path d="M388.924 123.076c-22.67-22.67-59.425-22.67-82.095 0l-86.968 86.968a55.586 55.586 0 0 0-16.268 40.48 55.58 55.58 0 0 1-14.425 38.546l-66.835 74.096c-6.616 7.426-6.291 18.724.742 25.757 7.033 7.033 18.331 7.358 25.757.742l74.096-66.834a55.586 55.586 0 0 1 38.547-14.425 55.583 55.583 0 0 0 40.481-16.268l86.968-86.968c22.67-22.669 22.67-59.424 0-82.094z" style="fill:#d3e6f8"/><path d="M388.924 123.076a58.39 58.39 0 0 0-7.793-6.524c15.867 22.644 13.703 54.075-6.523 74.301l-86.968 86.968a55.587 55.587 0 0 1-40.481 16.268 55.583 55.583 0 0 0-38.547 14.425l-74.096 66.834c-4.649 4.142-10.815 5.562-16.503 4.321a18.688 18.688 0 0 0 5.063 9.254c7.033 7.033 18.331 7.358 25.757.742l74.096-66.834a55.586 55.586 0 0 1 38.547-14.425 55.583 55.583 0 0 0 40.481-16.268l86.968-86.968c22.669-22.669 22.669-59.424-.001-82.094z" style="fill:#a4cff2"/><path class="st1" d="M123.076 388.924c7.033 7.033 18.331 7.358 25.757.742l21.786-19.651-28.634-28.634-19.651 21.786c-6.616 7.426-6.291 18.724.742 25.757z"/><path d="m156.302 355.698-21.786 19.651c-4.649 4.142-10.815 5.562-16.502 4.321.109.498.244.991.394 1.48.049.162.106.322.16.483.118.352.246.701.386 1.046.064.159.126.318.195.475.197.452.408.899.642 1.338.016.03.029.061.045.092.252.464.53.918.824 1.364.089.135.184.267.276.401.227.327.466.648.717.963.102.128.202.257.308.383.353.421.72.834 1.116 1.23 7.033 7.033 18.331 7.358 25.757.742l21.786-19.651-14.318-14.318z" style="fill:#e8677d"/><circle class="st1" cx="360.978" cy="151.021" r="14.539"/><path d="m268.045 270.564-26.61-26.61c-5.079-5.079-5.079-13.313 0-18.391l60.545-60.545c5.079-5.079 13.313-5.079 18.391 0l26.61 26.61c5.079 5.079 5.079 13.313 0 18.391l-60.545 60.545c-5.078 5.079-13.312 5.079-18.391 0z" style="fill:#7babf1"/><path class="st2" d="M277.241 280.374a18.881 18.881 0 0 1-13.438-5.566h.001-.001l-26.61-26.61c-7.41-7.41-7.41-19.467 0-26.876l60.545-60.545c3.59-3.589 8.362-5.566 13.438-5.566s9.849 1.977 13.438 5.566l26.609 26.61c7.41 7.41 7.41 19.466.001 26.876l-60.547 60.545a18.877 18.877 0 0 1-13.436 5.566zm33.936-113.166a6.961 6.961 0 0 0-4.954 2.052l-60.544 60.545a7.013 7.013 0 0 0 0 9.906l26.61 26.61h.001c1.322 1.323 3.081 2.052 4.952 2.052s3.63-.729 4.952-2.052l60.547-60.545a7.014 7.014 0 0 0-.001-9.906l-26.609-26.61a6.963 6.963 0 0 0-4.954-2.052zM136.343 400.41c-6.357 0-12.696-2.43-17.51-7.244-9.271-9.271-9.702-24.201-.979-33.991l19.676-21.813a5.996 5.996 0 0 1 4.301-1.979 6.02 6.02 0 0 1 4.397 1.755l28.634 28.634a5.998 5.998 0 0 1-.224 8.698l-21.786 19.65a24.75 24.75 0 0 1-16.509 6.29zm5.866-50.319-15.42 17.095c-4.472 5.02-4.25 12.716.53 17.496 4.778 4.779 12.476 5.001 17.523.504l17.067-15.395-19.7-19.7z"/><path class="st2" d="M136.343 400.41c-6.357 0-12.696-2.43-17.51-7.244-9.271-9.271-9.702-24.201-.979-33.991l66.859-74.123c8.582-9.449 13.151-21.661 12.881-34.401-.354-16.695 6.216-33.042 18.023-44.85l86.969-86.968c24.974-24.974 65.607-24.972 90.579 0 12.098 12.098 18.76 28.182 18.76 45.29s-6.662 33.192-18.76 45.29l-86.968 86.968c-11.808 11.808-28.188 18.375-44.85 18.024-12.743-.254-24.952 4.3-34.386 12.868l-74.111 66.848a24.744 24.744 0 0 1-16.507 6.289zm211.533-288.312c-13.328 0-26.657 5.074-36.805 15.221l-86.968 86.968c-9.507 9.507-14.796 22.669-14.512 36.111.335 15.823-5.34 30.99-15.981 42.707l-66.821 74.081c-4.472 5.02-4.25 12.716.53 17.496s12.477 5.001 17.522.505l74.069-66.811c11.702-10.627 26.872-16.31 42.692-15.967 13.469.289 26.604-5.005 36.111-14.512l86.968-86.968c9.83-9.831 15.244-22.901 15.244-36.804s-5.414-26.974-15.244-36.805c-10.147-10.148-23.476-15.222-36.805-15.222z"/><path class="st2" d="M360.979 171.551c-5.26 0-10.52-2.002-14.523-6.005-8.009-8.009-8.009-21.039 0-29.047 8.009-8.009 21.039-8.008 29.046 0 3.88 3.879 6.017 9.037 6.017 14.523s-2.137 10.644-6.017 14.523c-4.004 4.004-9.264 6.006-14.523 6.006zm0-29.064a8.512 8.512 0 0 0-6.039 2.497c-3.329 3.329-3.329 8.746 0 12.076 3.33 3.329 8.747 3.329 12.077 0 1.613-1.613 2.501-3.757 2.501-6.038s-.888-4.425-2.501-6.038a8.513 8.513 0 0 0-6.038-2.497z"/></g></svg>    