<svg xmlns="http://www.w3.org/2000/svg" xml:space="preserve" width="655.359" height="655.359" style="shape-rendering:geometricPrecision;text-rendering:geometricPrecision;image-rendering:optimizeQuality;fill-rule:evenodd;clip-rule:evenodd" viewBox="0 0 6.827 6.827"><defs><style>.fil1{fill:#333}.fil3{fill:#63cbe5}.fil0{fill:#333;fill-rule:nonzero}</style></defs><g id="Layer_x0020_1"><path class="fil0" d="M4.553 3.27a.107.107 0 0 0 .213 0V2.252a.107.107 0 0 0-.106-.107H.96a.107.107 0 0 0-.107.107v3.324c0 .058.048.106.107.106h3.125a.107.107 0 0 0 0-.213H1.067v-3.11h3.486v.91z"/><path class="fil0" d="M.96 1.144h3.7c.058 0 .106.048.106.107v1a.107.107 0 0 1-.106.107H.96a.107.107 0 0 1-.107-.106v-1c0-.06.048-.108.107-.108zm3.593.214H1.067v.787h3.486v-.787zM2.81 2.855a1.055 1.055 0 0 1 1.059 1.059 1.055 1.055 0 0 1-1.06 1.058 1.055 1.055 0 0 1-1.058-1.058 1.055 1.055 0 0 1 1.059-1.06zm.598.46a.843.843 0 0 0-1.196 0 .843.843 0 0 0 0 1.196.843.843 0 0 0 1.196 0 .843.843 0 0 0 0-1.195z"/><circle class="fil1" cx="1.673" cy="1.751" r=".197"/><circle class="fil1" cx="2.81" cy="1.751" r=".197"/><circle class="fil1" cx="3.946" cy="1.751" r=".197"/><path class="fil0" d="M4.356 5.754H5.63c.007 0 .014 0 .021.002.009 0 .033 0 .042-.023l-.064-.268a.106.106 0 0 1 .006-.067c.034-.093.472-1.356-.526-1.719h-.707c-.052.038-.172.14-.178.286.025.1.14.622-.053 1.099-.012.095-.071.67.183.69zm1.27.213H4.35c-.489-.025-.4-.843-.388-.936 0-.012.003-.024.008-.035.179-.431.066-.912.048-.983a.106.106 0 0 1-.006-.037c0-.282.247-.458.295-.49a.106.106 0 0 1 .064-.02h.755c.012 0 .025.002.037.006l-.035.1.035-.1c1.162.404.757 1.753.682 1.974l.06.256a.107.107 0 0 1 .004.039c-.024.236-.228.231-.282.226z"/><path class="fil0" d="M5.603 4.98c-.073.173-.193.093-.223.07a.08.08 0 0 1-.012-.011l.06-.054-.06.053c-.079-.086-.273-.4-.363-.672-.062-.19-.076-.367.022-.465a.081.081 0 0 1 .006-.005l.053.059-.053-.06c.106-.097.241-.035.273-.018a.081.081 0 0 1 .008.004c.193.12.28.307.31.51a1.982 1.982 0 0 1-.02.588h-.001zm-.147-.085c.02-.15.035-.323.01-.48-.024-.16-.09-.307-.235-.398h-.002c-.012-.007-.06-.03-.089-.003l-.002.002c-.044.046-.026.165.02.3.073.222.217.47.298.579zM4.564 3.466h.357v-.09h-.357v.09zm.463.213h-.57a.107.107 0 0 1-.106-.106V3.27c0-.06.048-.107.107-.107h.57c.058 0 .106.048.106.107v.303a.107.107 0 0 1-.107.106z"/><path d="M3.655 3.914a.843.843 0 0 0-.845-.846.843.843 0 0 0-.846.846.843.843 0 0 0 .846.845.843.843 0 0 0 .845-.845z" style="fill:#ebe5df"/><path class="fil3" d="M1.751 3.914a1.055 1.055 0 0 1 1.059-1.06 1.055 1.055 0 0 1 1.059 1.06 1.055 1.055 0 0 1-1.06 1.058 1.055 1.055 0 0 1-1.058-1.058zm2.6-.446V3.27c0-.06.048-.107.107-.107h.095v-.805H1.067v3.11H3.96c-.025-.2-.004-.395.002-.437 0-.012.003-.024.008-.035.179-.431.066-.912.048-.983a.106.106 0 0 1-.006-.037c0-.282.247-.458.295-.49a.106.106 0 0 1 .044-.018zM1.067 2.145h3.486v-.787H1.067v.787zm.606-.196a.197.197 0 1 1 0-.395.197.197 0 0 1 0 .395zm1.137 0a.197.197 0 1 1 0-.395.197.197 0 0 1 0 .395zm.939-.198a.197.197 0 1 1 .395 0 .197.197 0 0 1-.395 0z"/><g id="_443098968"><path id="_443099064" d="M4.225 3.965c.025.1.14.622-.053 1.099a1.68 1.68 0 0 0 .004.456.106.106 0 0 1 .015.063c.028.094.078.164.165.17H5.63l.021.003c.009 0 .033 0 .042-.023l-.064-.268a.106.106 0 0 1 .006-.067c.034-.093.472-1.356-.526-1.719h-.707c-.052.038-.172.14-.178.286zM5.603 4.98c-.073.174-.193.094-.223.07a.08.08 0 0 1-.012-.01c-.079-.087-.273-.401-.363-.673-.062-.19-.076-.367.022-.465a.081.081 0 0 1 .006-.005c.106-.098.241-.036.273-.02a.081.081 0 0 1 .008.005c.193.12.28.307.31.51a1.982 1.982 0 0 1-.02.588h-.001z" style="fill:#aed581"/><path id="_443098584" d="M4.92 3.376h-.356v.09h.357v-.09z" style="fill:#949494"/></g></g><path style="fill:none" d="M0 0h6.827v6.827H0z"/></svg>