<svg id="ICON" xmlns="http://www.w3.org/2000/svg" viewBox="0 0 512 512"><defs><style>.cls-3{fill:#e3b72e}.cls-4{fill:#d3d7c4}.cls-5{fill:#acc1c6}.cls-9{fill:#2a3342}.cls-11{fill:#d9dbde}</style></defs><path d="M420.36 444a232.24 232.24 0 0 1-26.76 19.54 235.93 235.93 0 0 1-250.4 0A231.38 231.38 0 0 1 116.44 444z" style="fill:#e8ba9e"/><path d="M268.4 499.5a234.58 234.58 0 0 1-125.2-36h250.4a234.6 234.6 0 0 1-125.2 36z" style="fill:#ac8760"/><path class="cls-3" d="M285.42 219.13s-29.13 41.44-37.67 83.51v18.2l28.62-2.1s-.33-84.58 14.79-95z"/><path class="cls-4" d="m428.53 130.84-91.06 71.74a25 25 0 0 1-22.87 4.24 24.73 24.73 0 0 1-11.31-7.28l-1-1.15-3.72-4.18a25 25 0 0 1 1-34.28l81.94-82a23.37 23.37 0 0 1 30.22-.69 22.89 22.89 0 0 1 2.76 2.65l16 18a23.38 23.38 0 0 1-1.96 32.95z"/><path class="cls-4" d="m316 205.6-1.37 1.22L299 220.67a12.45 12.45 0 0 1-17.52-1l-5.48-6.18a12.42 12.42 0 0 1 1-17.52l15.59-13.85 1.35-1.19a12.39 12.39 0 0 1 17.52 1l2.13 2.39 3.33 3.74a12.42 12.42 0 0 1-.92 17.54z"/><path class="cls-3" d="m428.53 130.84-91.06 71.74a25 25 0 0 1-22.87 4.24L299 220.67c-2.24 2-7.88 3.05-10.68 3.12l-5.05-2.52 19-22.88 11.39-14L404 73.08a23.3 23.3 0 0 1 7.7 4.13 22.89 22.89 0 0 1 2.76 2.65l16 18a23.38 23.38 0 0 1-1.93 32.98z"/><ellipse class="cls-3" cx="180.72" cy="219.13" rx="4.28" ry="19.22" transform="rotate(-15.94 180.696 219.123)"/><ellipse class="cls-3" cx="180.72" cy="219.13" rx="19.22" ry="4.28" transform="rotate(-15.94 180.696 219.123)"/><ellipse class="cls-3" cx="247.75" cy="155.75" rx="4.28" ry="19.22" transform="rotate(-2.72 247.699 155.706)"/><ellipse class="cls-3" cx="247.75" cy="155.75" rx="19.22" ry="4.28" transform="rotate(-2.72 247.699 155.706)"/><ellipse class="cls-3" cx="227.89" cy="267.74" rx="19.22" ry="4.28" transform="rotate(-80.03 227.895 267.742)"/><ellipse class="cls-3" cx="227.89" cy="267.74" rx="4.28" ry="19.22" transform="rotate(-80.03 227.895 267.742)"/><ellipse class="cls-3" cx="338.64" cy="263.63" rx="19.22" ry="4.28" transform="rotate(-68.58 338.672 263.628)"/><ellipse class="cls-3" cx="338.64" cy="263.63" rx="4.28" ry="19.22" transform="rotate(-68.58 338.672 263.628)"/><path class="cls-5" d="m163.64 300.46-.03 2.09v2.82l-.08 10.38-3.75-.03-12.5-.11-9.55-.05-2.76-.03.1-15.31 2.74.02h20.92l4.91.22z"/><path d="M371.84 308.15c-.19 25.67-21.08 47-46.72 47h-120c-22.27-.16-40.77-16.84-45.3-37.71a45.61 45.61 0 0 1-1.1-10.38h4.93l34.49.29h.06l21.72.19z" style="fill:#8f2d1d"/><path d="M258.9 355.13h-53.82c-22.27-.16-40.77-16.84-45.3-37.71a45.61 45.61 0 0 1-1.1-10.38h4.93l34.49.29h.06l21.72.19c0 5.18 1.29 47.29 39.02 47.61z" style="fill:#742319"/><rect x="300.07" y="317.95" width="50.9" height="12.87" rx="6.44" style="fill:#d0e0e3"/><path class="cls-5" d="M373.52 308.15H158.53v-7.91l214.99.12v7.79z"/><rect class="cls-9" x="58.48" y="296.87" width="83.23" height="22.14" rx="11.07"/><rect x="148.98" y="387.79" width="237.69" height="56.52" rx="12.55" style="fill:#d3595d"/><circle class="cls-9" cx="194.48" cy="415.48" r="22.46"/><path class="cls-11" d="M169.78 412.22h49.42v6.52h-49.42z"/><circle class="cls-9" cx="257.97" cy="415.48" r="22.46"/><path class="cls-11" transform="rotate(45 257.966 415.473)" d="M233.26 412.22h49.42v6.52h-49.42z"/><path class="cls-9" d="M180.72 354.5h173.92v16.97H180.72z"/><path style="fill:#adadad" d="M143.03 370.23h250.73v17.57H143.03z"/></svg>