<svg xmlns="http://www.w3.org/2000/svg" viewBox="0 0 512 512" style="enable-background:new 0 0 512 512" xml:space="preserve"><path style="fill:#36cc6b" d="M9.851 349.329v154.586h494.065V349.329"/><path style="fill:#bcae8a" d="M320.439 333.869c23.572 0 46.105.814 66.81 2.294l-77.22-101.843-21.394-28.763c-3.543-4.691-9.288-4.691-12.831 0l-108.24 143.3c32.874-9.034 89.065-14.988 152.875-14.988z"/><path style="fill:#b2a17d" d="m229.41 170.72-33.221-44.668c-5.503-7.284-14.428-7.284-19.928 0L88.983 241.6 8.084 349.329h159.124l98.625-130.572-36.423-48.037z"/><path style="fill:#ede1ca" d="M185.278 170.965c13.268 0 25.379-4.912 34.645-13.003l-23.733-31.911c-5.503-7.284-14.428-7.284-19.928 0l-24.708 32.709c9.141 7.618 20.895 12.205 33.724 12.205zM281.573 252.415c12.659 0 24.368-4.026 33.954-10.847l-5.497-7.249-21.394-28.763c-3.543-4.691-9.288-4.691-12.831 0l-27.552 36.475a58.394 58.394 0 0 0 33.32 10.384z"/><path style="fill:#b8e5f4" d="M27.373 232.885h68.193l32.79-43.411a24.581 24.581 0 0 0-16.089-5.969c-6.748 0-12.859 2.709-17.317 7.096-2.598-14.402-15.188-25.329-30.335-25.329-16.798 0-30.448 13.431-30.821 30.138a19.246 19.246 0 0 0-6.421-1.099c-10.653 0-19.289 8.636-19.289 19.288 0 10.65 8.636 19.286 19.289 19.286z"/><path style="fill:#85c8eb" d="M503.916 367.404c0-18.521-82.145-33.535-183.478-33.535s-183.48 15.015-183.48 33.535c0 6.865 11.296 13.248 30.663 18.565-29.876 4.926-49.278 12.877-49.278 21.849 0 14.953 53.87 27.073 120.324 27.073 66.452 0 120.324-12.121 120.324-27.073 0-2.584-1.613-5.084-4.619-7.451 85.119-2.91 149.544-16.56 149.544-32.963z"/><path style="fill:#2da555" d="M473.189 252.232c-.826 0-1.642.042-2.45.107-2.929-11.158-13.08-19.39-25.158-19.39-12.217 0-22.461 8.424-25.253 19.779a30.932 30.932 0 0 0-5.474-.496c-.826 0-1.639.042-2.45.107-2.929-11.158-13.08-19.39-25.156-19.39-12.217 0-22.461 8.424-25.253 19.779a30.958 30.958 0 0 0-5.474-.496c-9.76 0-18.45 4.555-24.078 11.649l54.804 72.281-.029-.002c68.309 4.881 116.697 17.03 116.697 31.244V282.96c.001-16.971-13.754-30.728-30.726-30.728z"/><g style="opacity:.1"><path style="fill:#231f20" d="m415.579 336.16.029.002-54.802-72.281.015-.018-8.584-11.322c-7.995 1.118-15.004 5.304-19.792 11.339l54.804 72.281-.029-.002c68.309 4.881 116.697 17.03 116.697 31.244v-17.917c-20.784-5.996-51.692-10.706-88.338-13.326z"/></g><path style="fill:#ffa233" d="M341.648 106.738c5.937 5.937 14.139 9.609 23.197 9.609 18.121 0 32.809-14.688 32.809-32.807 0-18.12-14.688-32.808-32.809-32.808-18.118 0-32.807 14.687-32.807 32.808.002 9.059 3.673 17.261 9.61 23.198"/><circle style="fill:#b8e5f4" cx="101.451" cy="120.584" r="16.893"/><path style="fill:#231f20" d="M337.485 376.566h-100.15a8.082 8.082 0 0 1-8.084-8.084 8.082 8.082 0 0 1 8.084-8.084h100.149a8.082 8.082 0 0 1 8.084 8.084 8.081 8.081 0 0 1-8.083 8.084zM260.727 404.696h-46.783c-4.466 0-8.084-3.618-8.084-8.084s3.618-8.084 8.084-8.084h46.783c4.466 0 8.084 3.618 8.084 8.084s-3.619 8.084-8.084 8.084zM387.249 376.566h-22.402a8.082 8.082 0 0 1-8.084-8.084 8.082 8.082 0 0 1 8.084-8.084h22.402a8.082 8.082 0 0 1 8.084 8.084 8.083 8.083 0 0 1-8.084 8.084z"/><path style="fill:#231f20" d="M476.362 244.276c-5.569-11.682-17.462-19.412-30.78-19.412a34.018 34.018 0 0 0-29.172 16.415c-6.06-9.99-17.017-16.415-29.16-16.415a34.007 34.007 0 0 0-30.722 19.284h-.004c-8.461 0-16.498 2.717-23.107 7.636l-11.431-15.075-.016-.024-5.453-7.188-21.43-28.811c-3.23-4.277-7.92-6.729-12.867-6.729-.619 0-1.233.039-1.841.114-4.256.528-8.198 2.874-11.026 6.616l-3.532 4.677-29.925-39.465-33.257-44.716c-3.83-5.069-9.198-8.142-14.909-8.606-.112-.009-.223-.025-.336-.031-.181-.012-.363-.011-.545-.017-.208-.008-.416-.019-.625-.019-.103 0-.206.008-.308.01a18.874 18.874 0 0 0-5.437.893c-.239.077-.475.165-.711.251-.13.047-.263.088-.392.139-3.649 1.411-6.962 3.939-9.563 7.384l-24.707 32.709-.014.019-18.682 24.725a32.753 32.753 0 0 0-14.144-3.216 32.71 32.71 0 0 0-13.114 2.723 38.889 38.889 0 0 0-34.539-20.956c-17.883 0-33.201 12.395-37.626 29.042C12.07 186.433 0 198.632 0 213.596c0 15.093 12.279 27.372 27.373 27.372h51.975L1.62 344.474a8.083 8.083 0 0 0-.767 8.468c.253.507.57.966.914 1.399v149.574a8.082 8.082 0 0 0 8.084 8.084h494.065a8.082 8.082 0 0 0 8.084-8.084V282.96c0-20.334-15.716-37.066-35.638-38.684zm-126.99 162.442c.595.469.983.848 1.231 1.126-1.957 2.283-10.296 7.538-32.796 12.123-21.641 4.411-49.746 6.84-79.139 6.84-29.394 0-57.499-2.43-79.14-6.84-22.577-4.602-30.895-9.876-32.814-12.147 2.219-2.593 12.91-9.042 42.224-13.876a8.085 8.085 0 0 0 .824-15.773c-18.201-4.996-23.214-9.357-24.444-10.798 1.58-1.957 7.503-5.795 21.744-9.962h.148a8.076 8.076 0 0 0 4.276-1.232c6.858-1.818 15.333-3.669 25.748-5.43 18.833-3.184 40.878-5.564 64.709-7.041l.398-.025a877.395 877.395 0 0 1 15.417-.81c.395-.017.789-.035 1.185-.051a941.58 941.58 0 0 1 15.18-.523l1.65-.042c2.487-.061 4.981-.118 7.488-.16l.107-.002c2.515-.043 5.043-.073 7.577-.097l1.867-.016c2.537-.019 5.079-.032 7.63-.032 20.017 0 39.624.595 58.16 1.736 2.704.167 5.392.345 8.059.536l.022.002h.003c.337.024.667.051 1.004.075 1.914.139 3.815.285 5.702.435.897.072 1.785.147 2.674.221 1.449.121 2.89.246 4.321.374.841.075 1.685.15 2.519.227 2.143.199 4.272.404 6.371.62.33.033.651.07.979.105 1.898.197 3.778.401 5.638.612.607.068 1.207.138 1.809.208a656.471 656.471 0 0 1 6.385.772c2.199.28 4.371.567 6.506.866l.03.004c2.096.293 4.155.597 6.188.908l.835.128c2.032.315 4.037.636 6 .968.805.136 1.583.274 2.366.411.522.092 1.043.183 1.559.276.743.134 1.476.267 2.198.402.55.102 1.091.206 1.633.309 1.259.24 2.483.482 3.677.724.462.094.929.186 1.386.281a329.78 329.78 0 0 1 3.267.699c14.725 3.239 23.922 6.539 29.368 9.205 4.064 2.02 5.771 3.576 6.435 4.346-1.595 1.849-9.161 8.237-40.797 14.608-26.371 5.31-62.11 8.958-100.638 10.275a8.085 8.085 0 0 0-7.407 5.564 8.078 8.078 0 0 0 2.678 8.871zm-99.065-153.991c9.592 5.102 20.263 7.772 31.267 7.772 11.287 0 22.199-2.804 31.971-8.163l56.623 74.679a949.587 949.587 0 0 0-24.27-.912l-.565-.014a1018.21 1018.21 0 0 0-11.979-.222c-.211-.003-.423-.004-.633-.008a1020.716 1020.716 0 0 0-17.009-.064l-.111.001c-47.674.223-92.384 3.733-126.357 9.944-.645.117-1.277.237-1.909.356l.495-.654 62.477-82.715zm110.26 7.959a8.083 8.083 0 0 0 9.28-6.028 17.876 17.876 0 0 1 17.403-13.626c8.143 0 15.273 5.493 17.337 13.357a8.09 8.09 0 0 0 8.457 6.007c.69-.055 1.282-.081 1.813-.081 1.325 0 2.684.123 4.043.368 4.193.763 8.262-1.882 9.281-6.027a17.876 17.876 0 0 1 17.403-13.626c8.145 0 15.275 5.493 17.339 13.357.993 3.787 4.569 6.329 8.459 6.006.687-.054 1.278-.08 1.811-.08 12.485 0 22.642 10.158 22.642 22.643v65.417c-4.041-1.978-8.881-3.835-14.506-5.593-.258-.081-.512-.162-.774-.243-.423-.129-.848-.26-1.281-.388a163.86 163.86 0 0 0-2.358-.687l-.624-.176c-.985-.276-1.995-.552-3.034-.826l-.011-.003-.016-.004a237.432 237.432 0 0 0-8.016-1.957l-.172-.039a290.286 290.286 0 0 0-3.962-.868c-.259-.055-.523-.109-.783-.163a376.567 376.567 0 0 0-5.119-1.028 386.97 386.97 0 0 0-6.411-1.178l-.555-.098a479.576 479.576 0 0 0-3.997-.674c-1.6-.262-3.222-.52-4.868-.772l-1.544-.237c-.747-.112-1.503-.221-2.258-.331-.875-.127-1.756-.252-2.641-.376-.565-.079-1.125-.158-1.696-.236a584.68 584.68 0 0 0-4.708-.623l-.39-.049c-10.893-1.388-22.492-2.551-34.633-3.473L343.18 264.66c4.87-3.563 11.009-5.122 17.387-3.974zm-56.979-21.481.039.051.008.01c-6.837 3.332-14.333 5.066-22.061 5.066-7.457 0-14.711-1.616-21.358-4.721l22.006-29.133 21.366 28.727zM182.713 130.924c1.096-1.452 2.343-2.251 3.512-2.251.147 0 .293.013.442.037 1.037.172 2.108.938 3.036 2.167l18.901 25.414a44.567 44.567 0 0 1-23.326 6.591 44.693 44.693 0 0 1-22.224-5.932l19.659-26.026zM16.168 213.596c0-6.177 5.026-11.204 11.205-11.204 1.276 0 2.531.215 3.728.638a8.084 8.084 0 0 0 10.775-7.442c.274-12.261 10.474-22.235 22.739-22.235 11.015 0 20.426 7.856 22.379 18.68a8.082 8.082 0 0 0 13.625 4.327 16.518 16.518 0 0 1 11.649-4.774c1.355 0 2.694.166 3.991.488l-24.718 32.724H27.373c-6.178.003-11.205-5.024-11.205-11.202zm1.767 282.235V357.413h32.167c4.466 0 8.084-3.618 8.084-8.084s-3.618-8.084-8.084-8.084H24.266l71.168-94.772 6.582-8.714.001-.001 3.034-4.017 48.207-63.821a60.901 60.901 0 0 0 32.02 9.131 60.733 60.733 0 0 0 32.997-9.756l4.693 6.311 32.727 43.162-13.893 18.393-.005.008L190.1 305.61l-26.917 35.636H75.97a8.082 8.082 0 0 0-8.084 8.084 8.082 8.082 0 0 0 8.084 8.084h56.569c-2.961 3.608-3.666 7.028-3.666 9.992 0 6.245 3.664 11.624 11.293 16.353-20.075 5.97-29.907 13.918-29.907 24.061 0 11.898 13.591 20.74 41.552 27.031 23.29 5.24 54.137 8.126 86.857 8.126 32.718 0 63.566-2.887 86.857-8.126 27.867-6.27 41.46-15.073 41.552-26.912 37.089-1.767 70.716-5.649 95.708-11.094 14.147-3.082 25.097-6.528 33.047-10.437v109.423H17.935zM364.847 124.431c-10.922 0-21.19-4.253-28.915-11.976-7.722-7.723-11.975-17.991-11.975-28.915 0-22.547 18.344-40.892 40.891-40.892 22.548 0 40.893 18.344 40.893 40.892-.002 22.547-18.346 40.891-40.894 40.891zm0-65.614c-13.631 0-24.723 11.09-24.723 24.724 0 6.603 2.572 12.812 7.241 17.481s10.878 7.241 17.481 7.241c13.632 0 24.725-11.09 24.725-24.723s-11.092-24.723-24.724-24.723z"/><path style="fill:#231f20" d="M101.45 145.566c-13.772 0-24.977-11.205-24.977-24.977s11.204-24.977 24.977-24.977c13.772 0 24.977 11.205 24.977 24.977s-11.203 24.977-24.977 24.977zm0-33.786c-4.857 0-8.809 3.952-8.809 8.809 0 4.857 3.952 8.809 8.809 8.809 4.857 0 8.809-3.952 8.809-8.809 0-4.857-3.952-8.809-8.809-8.809zM440.304 91.624H418.98c-4.466 0-8.084-3.62-8.084-8.084s3.618-8.084 8.084-8.084h21.324a8.085 8.085 0 0 1 0 16.168zM310.716 91.624h-21.324c-4.466 0-8.084-3.62-8.084-8.084s3.618-8.084 8.084-8.084h21.324c4.466 0 8.084 3.62 8.084 8.084s-3.618 8.084-8.084 8.084zM403.124 53.347a8.083 8.083 0 0 1-5.717-13.8l15.078-15.078a8.085 8.085 0 0 1 11.433 11.432L408.84 50.978a8.054 8.054 0 0 1-5.716 2.369zM311.493 144.98a8.084 8.084 0 0 1-5.717-13.8l15.078-15.079a8.084 8.084 0 0 1 11.433 11.432l-15.078 15.079a8.064 8.064 0 0 1-5.716 2.368zM364.847 37.493a8.084 8.084 0 0 1-8.084-8.085l.002-21.324a8.083 8.083 0 0 1 8.084-8.083h.001a8.084 8.084 0 0 1 8.083 8.085l-.002 21.324a8.085 8.085 0 0 1-8.084 8.083zM364.847 167.081a8.084 8.084 0 0 1-8.084-8.084v-21.325c0-4.465 3.618-8.084 8.084-8.084s8.084 3.62 8.084 8.084v21.325a8.085 8.085 0 0 1-8.084 8.084zM326.571 53.348a8.058 8.058 0 0 1-5.717-2.368l-15.078-15.079a8.082 8.082 0 0 1 .001-11.432 8.083 8.083 0 0 1 11.432 0l15.078 15.079a8.082 8.082 0 0 1-.001 11.432 8.053 8.053 0 0 1-5.715 2.368zM418.203 144.981a8.058 8.058 0 0 1-5.717-2.368l-15.078-15.079a8.084 8.084 0 1 1 11.433-11.432l15.078 15.079a8.084 8.084 0 0 1-5.716 13.8z"/><g style="opacity:.1"><path style="fill:#231f20" d="M9.851 349.324h25.522v154.581H9.851z"/></g><g style="opacity:.1"><path style="fill:#231f20" d="m200.207 131.453-4.017-5.401c-5.503-7.284-14.428-7.284-19.928 0L88.983 241.6 8.084 349.329h28.025l80.9-107.729 83.198-110.147z"/></g><g style="opacity:.1"><path style="fill:#231f20" d="m295.284 214.494-6.647-8.937c-3.543-4.691-9.288-4.691-12.831 0l-108.241 143.3c8.812-2.421 19.312-4.619 31.171-6.542l96.548-127.821z"/></g></svg>