<svg xmlns="http://www.w3.org/2000/svg" viewBox="0 0 511.999 511.999" style="enable-background:new 0 0 511.999 511.999" xml:space="preserve"><path style="fill:#a4a9ad" d="M267.281 101.258h26.683v34.499h-26.683z"/><path style="fill:#e5ab46" d="M334.771 141.148c0-7.115-6.18-12.937-16.224-12.937h-80.823c-5.059 0-11.24 5.822-11.24 12.937v34.227c0 7.116 6.181 12.936 13.733 12.936h80.821c7.553 0 13.734-5.821 13.734-12.936v-34.227h-.001z"/><path style="fill:#3b82f6" d="M345.849 177.798v-6.367c0-6.39-5.179-11.569-11.569-11.569H226.975c-6.39 0-11.569 5.179-11.569 11.569v6.367c0 25.873-86.463 99.785-86.463 199.567 0 52.857 27.042 99.391 68.04 126.545H364.27c40.998-27.154 68.04-73.689 68.04-126.545.001-99.783-86.461-173.694-86.461-199.567z"/><path style="fill:#e5ab46" d="M305.288 63.256c0-3.559-2.91-6.468-6.468-6.468h-36.386c-3.555 0-6.468 2.909-6.468 6.468v36.385c0 3.559 2.912 6.469 6.468 6.469h36.386c3.558 0 6.468-2.91 6.468-6.469V63.256z"/><path style="fill:#f5cfb2" d="M229.592 73.631c-25.604 0-45.547-17.653-55.827-24.336v.001a37.931 37.931 0 0 0-9.795-5.236c-5.292-12.391-16.972-21.4-30.904-22.896-3.365-7.692-11.036-13.074-19.972-13.074-12.039 0-21.8 9.759-21.8 21.798 0 4.466 1.347 8.611 3.649 12.069a37.88 37.88 0 0 0-4.029 17.035 37.88 37.88 0 0 0 7.174 22.226c-11.029 6.664-18.403 18.765-18.403 32.589 0 21.015 17.036 38.051 38.049 38.051 19.71 0 35.919-14.988 37.856-34.185a37.816 37.816 0 0 0 16.253-5.866v.002l.099-.066c.194-.127.392-.25.585-.382 10.54-6.914 32.005-22.097 57.061-22.097a7.816 7.816 0 0 0 7.817-7.815 7.812 7.812 0 0 0-7.813-7.818z"/><circle style="fill:#fff" cx="352.185" cy="293.106" r="35.041"/><circle style="fill:#fff" cx="387.222" cy="355.142" r="19.409"/><path style="fill:#1e252b" d="M162.621 124.572a46.337 46.337 0 0 0 13.662-6c.033-.022.067-.042.099-.065l.153-.098c.167-.108.334-.216.499-.329l1.832-1.208c10.312-6.822 29.507-19.52 50.726-19.52 8.771 0 15.908-7.135 15.908-15.906 0-8.772-7.137-15.908-15.908-15.908-18.959 0-34.952-11.401-45.534-18.945-2.121-1.512-3.964-2.826-5.68-3.95a46.029 46.029 0 0 0-8.453-4.907c-6.411-12.344-18.073-21.15-31.647-23.939A29.893 29.893 0 0 0 113.094 0c-16.482 0-29.89 13.408-29.89 29.889 0 4.337.932 8.574 2.72 12.464-2.059 5.296-3.1 10.876-3.1 16.64 0 7.02 1.564 13.824 4.57 20.034-10.01 8.681-15.799 21.199-15.799 34.78 0 25.442 20.698 46.142 46.139 46.142 21.697-.002 40.023-14.833 44.887-35.377zm-15.077-7.712c-1.548 15.339-14.362 26.906-29.807 26.906-16.519 0-29.959-13.441-29.959-29.961 0-10.585 5.419-20.179 14.497-25.665a8.09 8.09 0 0 0 2.378-11.655 29.732 29.732 0 0 1-5.647-17.494c0-4.702 1.067-9.213 3.17-13.408a8.094 8.094 0 0 0-.498-8.112 13.64 13.64 0 0 1-2.293-7.584c0-7.558 6.151-13.708 13.709-13.708a13.714 13.714 0 0 1 12.559 8.226 8.09 8.09 0 0 0 6.549 4.802c10.748 1.153 20.07 8.062 24.328 18.029a8.093 8.093 0 0 0 4.713 4.439 29.864 29.864 0 0 1 7.707 4.118c.133.098.268.192.405.282 1.482.964 3.256 2.226 5.307 3.691 10.531 7.508 27.552 19.643 48.847 21.663-23.383 1.975-42.764 14.799-53.572 21.947l-1.846 1.218-.125.084-.405.262-.126.081a29.537 29.537 0 0 1-12.78 4.613 8.095 8.095 0 0 0-7.111 7.226zm227.84 98.072c-10.543-15.209-21.446-30.935-21.446-37.134v-6.367c0-7.76-4.532-14.465-11.078-17.659v-12.624c0-12.184-10.225-21.027-24.314-21.027h-16.488v-6.296c6.471-1.478 11.319-7.269 11.319-14.183V63.256c0-8.027-6.532-14.558-14.558-14.558h-36.386c-8.027 0-14.558 6.532-14.558 14.558v36.385c0 6.913 4.848 12.705 11.319 14.183v6.296h-21.469c-10.116 0-19.33 10.022-19.33 21.027v12.624c-6.547 3.194-11.078 9.899-11.078 17.659v6.367c0 6.199-10.901 21.926-21.445 37.134-25.891 37.347-65.017 93.787-65.017 162.433 0 53.741 26.79 103.57 71.664 133.289a8.088 8.088 0 0 0 4.468 1.345h167.287a8.098 8.098 0 0 0 4.468-1.345c44.874-29.722 71.663-79.548 71.663-133.289-.004-68.645-39.131-125.085-65.021-162.432zM264.056 94.253c4.244-2.686 7.07-7.411 7.07-12.804 0-5.395-2.826-10.119-7.07-12.806v-3.764h33.141V98.02h-33.141v-3.767zm21.823 19.946v5.92h-10.502v-5.92h10.502zm-51.305 26.949c0-2.532 2.252-4.597 3.259-4.847h80.714c4.788 0 8.133 1.993 8.133 4.847v10.625h-92.106v-10.625zm127.224 354.671H199.456c-39.134-26.858-62.423-70.956-62.423-118.455 0-63.585 37.392-117.523 62.135-153.214 14.65-21.133 24.328-35.092 24.328-46.353v-6.367a3.483 3.483 0 0 1 3.479-3.479H334.28a3.483 3.483 0 0 1 3.479 3.479v6.367c0 11.261 9.678 25.22 24.328 46.353 24.743 35.691 62.133 89.629 62.133 153.214 0 47.497-23.289 91.597-62.422 118.455z"/></svg>