<svg xmlns="http://www.w3.org/2000/svg" viewBox="0 0 64 64"><g data-name="24-Price tag"><path d="m58.81 21.57-4.7 14.1L48 32v31H16V32l-6.11 3.67-4.7-14.1L20 13l3-.37v.45A8.971 8.971 0 0 0 32 20a8.971 8.971 0 0 0 9-6.92v-.45l3 .37z" style="fill:#e04323"/><path style="fill:#262626" d="m63 24-5 14-3.89-2.33 4.7-14.1L63 24z"/><path d="m36.99 12.15 4.01.93A8.971 8.971 0 0 1 32 20a8.971 8.971 0 0 1-9-6.92l4.01-.93c.08.6.66 2.85 4.99 2.85s4.91-2.25 4.99-2.85z" style="fill:#fff"/><path style="fill:#262626" d="m5.19 21.57 4.7 14.1L6 38 1 24l4.19-2.43z"/><path d="M36.667 13.08H23A8.971 8.971 0 0 0 32 20a8.971 8.971 0 0 0 9-6.92z" style="fill:#edf4fa"/><path d="M35 58a14 14 0 0 1-14-14V31a5 5 0 0 0-5-5l-7.745 4.766 1.635 4.9L16 32v31h32v-5z" style="fill:#cd2b15"/><path style="fill:#101012" d="m9.89 35.67-1.635-4.904-3.967 2.441L6 38l3.89-2.33zM54.11 35.67 58 38l1.712-4.793-3.967-2.441-1.635 4.904z"/><path style="fill:#cd2b15" d="M48 26v6l6.11 3.67 1.635-4.904L48 26z"/><path d="M41.113 12.593 32.5 10.6V9.473A4.5 4.5 0 1 0 27.5 5h1A3.5 3.5 0 1 1 32 8.5a.5.5 0 0 0-.5.5v1.6l-8.613 1.991.226.974 3.528-.815c.339 1.032 1.484 2.75 5.359 2.75s5.02-1.718 5.359-2.748l3.528.815zm-4.733-.068c-.29.763-1.245 1.975-4.38 1.975s-4.09-1.212-4.38-1.975L32 11.513"/><path style="fill:#cd2b15" d="M37 28.429 34 31v18h14v-3H37V28.429z"/><path d="M40.5 12.417v.638A8.526 8.526 0 0 1 32 19.5a8.5 8.5 0 0 1-8.5-6.5v-.583l-1 .166v.522A9.518 9.518 0 0 0 32 20.5a9.518 9.518 0 0 0 9.5-7.395v-.522z" style="fill:#202024"/><path style="fill:#101012" d="M43.5 13h1v10h-1z"/><path style="fill:#202024" d="m44 22-7 6v18h14V28l-7-6z"/><path style="fill:#101012" d="M37 28v18h7V22l-7 6z"/><circle cx="47" cy="39" r="1" style="fill:#edf4fa"/><circle cx="41" cy="33" r="1" style="fill:#edf4fa"/><path d="M41 40.5a.5.5 0 0 1-.4-.8l6-8a.5.5 0 0 1 .8.6l-6 8a.5.5 0 0 1-.4.2z" style="fill:#edf4fa"/></g></svg>