<svg xmlns="http://www.w3.org/2000/svg" viewBox="0 0 242.02 222.52"><defs><linearGradient id="linear-gradient" x1="-261.04" y1="1184.13" x2="-7.18" y2="1184.13" gradientTransform="rotate(-27.1 -2277.097 133.586)" gradientUnits="userSpaceOnUse"><stop offset="0" stop-color="#efa6c2"/><stop offset="1" stop-color="#96cdbd"/></linearGradient><style>.cls-3{fill:#cec09f}.cls-5,.cls-6{fill:#9dcc96;stroke:#212683;stroke-miterlimit:10;stroke-width:6px}.cls-6{fill:none}.cls-7{fill:#212683}.cls-8{fill:#1f268e}</style></defs><g style="isolation:isolate"><g id="Layer_2" data-name="Layer 2"><g id="Layer_1-2" data-name="Layer 1"><path d="M135.26 13.31a73 73 0 0 0-21.86 17.17c-.54-1.33-1.13-2.65-1.8-3.95a48.84 48.84 0 1 0-86.89 44.65c.18.34.37.68.55 1a73.25 73.25 0 1 0 118.52 75.13 73.25 73.25 0 1 0-8.52-134z" style="opacity:.4;mix-blend-mode:multiply;fill:url(#linear-gradient)"/><path class="cls-3" d="m205.67 107.34-22.21 13.85a7.71 7.71 0 0 1-9.92-1.51l-3.54-4.09a2.56 2.56 0 0 0-4.5 1.67v93.87a8.24 8.24 0 0 1-8.24 8.24H59.13a8.24 8.24 0 0 1-8.24-8.24v-93.87a2.56 2.56 0 0 0-4.5-1.67l-3.52 4.09a7.71 7.71 0 0 1-9.92 1.51l-22.21-13.85a7.7 7.7 0 0 1-2.87-9.87l21.8-45.53a29.86 29.86 0 0 1 17.78-15.53l17.77-5.72 1-1.37 12.67-16.63h58.63l12.63 16.63 1 1.37L169 36.41a29.87 29.87 0 0 1 17.78 15.53l21.8 45.53a7.71 7.71 0 0 1-2.91 9.87z"/><path style="fill:#9dcc96" d="M50.89 173.69h114.63v17.67H50.89z"/><path class="cls-3" d="M20 173.69a3.13 3.13 0 0 1-3.13 3.13h-2.52v2.54a3.14 3.14 0 1 1-6.27 0v-2.54h-1v-6.27h1V168a3.14 3.14 0 0 1 6.27 0v2.54h2.54a3.14 3.14 0 0 1 3.11 3.15zM8.08 24.63h-1v-6.26h1v-2.55a3.14 3.14 0 0 1 6.27 0v2.55h2.54a3.13 3.13 0 0 1 0 6.26h-2.54v2.55a3.14 3.14 0 0 1-6.27 0zM215.42 189.69a3.13 3.13 0 0 1-3.13 3.13h-2.54v2.54a3.13 3.13 0 1 1-6.27 0v-2.54h-2.54a3.14 3.14 0 1 1 0-6.27h2.54V184a3.13 3.13 0 0 1 6.27 0v2.54h2.54a3.14 3.14 0 0 1 3.13 3.15z"/><path class="cls-5" d="m79.33 12.69 28.87 24.83-22.69 15.87a3.76 3.76 0 0 1-5.38-1.14L66.26 29.32M150.15 29.32l-13.88 22.93a3.76 3.76 0 0 1-5.38 1.14l-22.68-15.87 28.87-24.83"/><path class="cls-6" d="M96.53 219.37h-37.4a8.24 8.24 0 0 1-8.24-8.24v-93.87a2.56 2.56 0 0 0-4.5-1.67l-3.52 4.09a7.71 7.71 0 0 1-9.92 1.51l-22.21-13.85a7.7 7.7 0 0 1-2.87-9.87l21.8-45.53a29.86 29.86 0 0 1 17.78-15.53l17.77-5.72 1-1.37 12.67-16.63h58.63l12.63 16.63 1 1.37L169 36.41a29.86 29.86 0 0 1 17.78 15.53l21.8 45.53a7.71 7.71 0 0 1-2.87 9.87l-22.21 13.85a7.71 7.71 0 0 1-9.92-1.51l-3.58-4.09a2.56 2.56 0 0 0-4.5 1.67v93.87a8.24 8.24 0 0 1-8.24 8.24h-37.39"/><circle class="cls-7" cx="108.21" cy="66.02" r="4.09"/><circle class="cls-7" cx="108.21" cy="82.27" r="4.09"/><circle class="cls-7" cx="108.21" cy="98.51" r="4.09"/><path class="cls-6" d="M50.89 189.69h114.63M50.89 173.69h114.63"/><path class="cls-8" d="M20 173.69a3.13 3.13 0 0 1-3.13 3.13h-2.52v2.54a3.14 3.14 0 1 1-6.27 0v-2.54H5.54a3.14 3.14 0 1 1 0-6.27h2.54V168a3.14 3.14 0 0 1 6.27 0v2.54h2.54a3.14 3.14 0 0 1 3.11 3.15zM20 21.5a3.13 3.13 0 0 1-3.13 3.13h-2.52v2.55a3.14 3.14 0 0 1-6.27 0v-2.55H5.54a3.13 3.13 0 1 1 0-6.26h2.54v-2.55a3.14 3.14 0 0 1 6.27 0v2.55h2.54A3.13 3.13 0 0 1 20 21.5zM215.42 189.69a3.13 3.13 0 0 1-3.13 3.13h-2.54v2.54a3.13 3.13 0 1 1-6.27 0v-2.54h-2.54a3.14 3.14 0 1 1 0-6.27h2.54V184a3.13 3.13 0 0 1 6.27 0v2.54h2.54a3.14 3.14 0 0 1 3.13 3.15z"/><circle class="cls-7" cx="108.2" cy="219.37" r="3.15"/><path class="cls-6" d="M50.89 143.27h50M106.89 143.27h9.75"/></g></g></g></svg>