<svg xmlns="http://www.w3.org/2000/svg" data-name="Artboard 30" viewBox="0 0 64 64" id="skincare"><path fill="#fd706f" d="M31.867,29.02,33.985,6.347A4,4,0,0,0,30,2H8A4,4,0,0,0,4.016,6.347L8,49v4H31Z"></path><path fill="#fd8d8c" d="M31.867,29.02,33.985,6.346A4,4,0,0,0,30,2H8.357L12,41a4,4,0,0,0,4,4h15.29Z"></path><path fill="#e5e5e5" d="M19,21l-3.392,7.14a3.747,3.747,0,0,0,.893,5.041h0a4.176,4.176,0,0,0,5,0h0a3.747,3.747,0,0,0,.893-5.041Z"></path><path fill="#f2f2f2" d="M29.416,61.412A1.994,1.994,0,0,1,28,62H10a2,2,0,0,1-2-2V53H30Z"></path><rect width="8" height="5" x="15" y="57" fill="#e5e5e5"></rect><polygon fill="#fec6c5" points="33.737 9 4.264 9 4.638 13 33.363 13 33.737 9"></polygon><polygon fill="#ffe2e2" points="9.384 13 33.363 13 33.737 9 9.01 9 9.384 13"></polygon><polygon fill="#ff6161" points="26 49 8 49 8 53 31 53 31.124 49.569 26 49"></polygon><path fill="#ffc239" d="M28,40H58a2,2,0,0,1,2,2V56a6,6,0,0,1-6,6H32a6,6,0,0,1-6-6V42A2,2,0,0,1,28,40Z"></path><rect width="30" height="5" x="28" y="35" fill="#e5e5e5"></rect><path fill="#fff3c9" d="M28,35V33.277A4.277,4.277,0,0,1,32.277,29H46.745A6.133,6.133,0,0,0,50.3,27.926,3.582,3.582,0,0,0,52,25s6,2,6,10Z"></path><path fill="#37C0A9" d="M59.651,58A5.971,5.971,0,0,0,60,56V42a2,2,0,0,0-2-2H29V52a6,6,0,0,0,6,6Z"></path><ellipse cx="43" cy="50" fill="#e5e5e5" rx="11" ry="6"></ellipse><path fill="#f2f2f2" d="M43 44c-3.792 0-7.136 1.047-9.113 2.64A3.8 3.8 0 0033 49c0 3.314 4.925 6 11 6 3.792 0 7.136-1.047 9.113-2.64A3.8 3.8 0 0054 50C54 46.686 49.075 44 43 44zM30 35.772A2.229 2.229 0 0032.228 38H58V35H30z"></path><path fill="#fff7dc" d="M52,25a3.582,3.582,0,0,1-1.7,2.926A6.133,6.133,0,0,1,46.745,29H32.277A4.222,4.222,0,0,0,31,29.216v.849A2.935,2.935,0,0,0,33.935,33H57.849A9.689,9.689,0,0,0,52,25Z"></path><path fill="#f2f2f2" d="M19.76,22.6l-2.152,4.53A3.747,3.747,0,0,0,18.5,32.17a4.16,4.16,0,0,0,3.283.748,3.73,3.73,0,0,0,.608-4.778Z"></path><path d="M7,60a3,3,0,0,0,3,3H28a2.972,2.972,0,0,0,1.56-.447A6.96,6.96,0,0,0,32,63H54a7.008,7.008,0,0,0,7-7V42a3,3,0,0,0-2-2.816V35c0-8.622-6.411-10.858-6.684-10.949A1,1,0,0,0,51,25a2.559,2.559,0,0,1-1.279,2.11,5.1,5.1,0,0,1-2.975.89H32.966L34.981,6.433A5,5,0,0,0,30,1H8a5,5,0,0,0-4.98,5.439L7,49ZM9,50H25v2H9ZM22,61H16V58h6Zm2,0V57a1,1,0,0,0-1-1H15a1,1,0,0,0-1,1v4H10a1,1,0,0,1-1-1l0-6H25v2a6.977,6.977,0,0,0,2.11,5Zm35-5a5.006,5.006,0,0,1-5,5H32a5.006,5.006,0,0,1-5-5V42a1,1,0,0,1,1-1H58a1,1,0,0,1,1,1ZM57,39H29V36H57ZM50.877,28.742a4.99,4.99,0,0,0,1.854-2.268A9.169,9.169,0,0,1,56.963,34H29v-.723A3.281,3.281,0,0,1,32.277,30H46.746A7.089,7.089,0,0,0,50.877,28.742ZM5.362,10H32.639l-.187,2H5.548ZM5.79,3.973A2.964,2.964,0,0,1,8,3H30a3,3,0,0,1,2.989,3.253L32.826,8H5.175L5.012,6.26A2.966,2.966,0,0,1,5.79,3.973ZM5.735,14H32.266L30.94,28.193A5.271,5.271,0,0,0,27,33.277v5.907A3,3,0,0,0,25,42v6H8.911Z"></path><path d="M15.9 33.978a5.153 5.153 0 006.206 0 4.756 4.756 0 001.164-6.327L19.9 20.571a1 1 0 00-1.806 0l-3.364 7.08A4.756 4.756 0 0015.9 33.978zm.546-5.287a.979.979 0 00.069-.122L19 23.331l2.488 5.238a.979.979 0 00.069.122 2.75 2.75 0 01-.662 3.693 3.189 3.189 0 01-3.79 0A2.75 2.75 0 0116.443 28.691zM43 43c-6.729 0-12 3.075-12 7s5.271 7 12 7 12-3.075 12-7S49.729 43 43 43zm0 12c-5.42 0-10-2.29-10-5s4.58-5 10-5 10 2.29 10 5S48.42 55 43 55z"></path></svg>