<svg xmlns="http://www.w3.org/2000/svg" viewBox="0 0 340 340"><path d="M182.96 10c-39.4 0-73.491 32.05-73.491 71.445v74.728c0 4.161 5.419 7.534 9.58 7.534a7.534 7.534 0 0 0 7.533-7.534V81.445a56.442 56.442 0 0 1 56.378-56.378c31.086 0 54.331 25.291 54.331 56.378v74.728c0 4.161 5.419 7.534 9.58 7.534a7.534 7.534 0 0 0 7.534-7.534V81.445A71.526 71.526 0 0 0 182.96 10z" style="fill:#7b8bba"/><path d="M312.309 289.941c-1.26-17.655-7.033-34.058-15.377-49.459-12.184-22.521-14.631-46.3-14.631-46.3L170 221.432 57.7 194.183s-2.448 23.778-14.632 46.3c-8.342 15.4-14.117 31.8-15.376 49.459A37.778 37.778 0 0 0 65.482 330h209.035a37.78 37.78 0 0 0 37.792-40.059z" style="fill:#bac9e8"/><path d="M188.25 237.4h-36.5a19.658 19.658 0 0 0-19.636 19.637v8.614a34.364 34.364 0 0 0 34.325 34.325h7.124a34.364 34.364 0 0 0 34.325-34.325v-8.611a19.659 19.659 0 0 0-19.638-19.64z" style="fill:#7b8bba"/><path d="M292.2 230.614a141.137 141.137 0 0 1-9.9-36.431L170 221.432 57.7 194.183a141.165 141.165 0 0 1-9.9 36.431c9.643 17.062 28.116 29.141 56.549 36.147 19.814 4.4 44.712 13.359 56.169 19.471a20.169 20.169 0 0 0 18.965 0c11.457-6.109 36.357-15.07 56.169-19.472 28.388-6.979 46.93-19.107 56.548-36.146z" style="fill:#7b8bba"/><path d="M276.927 153.1a32.5 32.5 0 0 0-27.12-16 97.56 97.56 0 0 1-15.849-.013c-27.71.066-85.145-.048-112.5 0a79.59 79.59 0 0 1-15.6 0H91.111A32.5 32.5 0 0 0 63.073 153.1c-6.744 11.482-12.832 30.074-10.49 58.676A36.867 36.867 0 0 0 64.012 235.7c12.934 12.506 29.976 18.888 54.606 24.318 12.6 3.652 37.818 11.58 51.382 20.136 13.563-8.556 38.778-16.484 51.382-20.135 24.653-5.44 41.674-11.812 54.605-24.319a36.858 36.858 0 0 0 11.429-23.93c2.343-28.601-3.746-47.193-10.489-58.67z" style="fill:#bac9e8"/><path d="M173.562 289.979h-7.124a24.325 24.325 0 0 1-24.325-24.325v-8.614a9.637 9.637 0 0 1 9.636-9.637h36.5a9.637 9.637 0 0 1 9.637 9.637v8.614a24.325 24.325 0 0 1-24.324 24.325z" style="fill:#fff"/><path d="M170 10a71.526 71.526 0 0 0-71.445 71.445v74.728a7.534 7.534 0 1 0 15.067 0V81.445a56.378 56.378 0 1 1 112.755 0v74.728a7.534 7.534 0 0 0 15.068 0V81.445A71.526 71.526 0 0 0 170 10z" style="fill:#bac9e8"/><path d="M105.861 190.679a13.714 13.714 0 0 1-13.714-13.713v-12.559a7.26 7.26 0 0 1 7.26-7.259h12.908a7.26 7.26 0 0 1 7.26 7.259v12.559a13.714 13.714 0 0 1-13.714 13.713zM233.959 190.679a13.714 13.714 0 0 1-13.714-13.713v-12.559a7.259 7.259 0 0 1 7.26-7.259h12.907a7.259 7.259 0 0 1 7.26 7.259v12.559a13.714 13.714 0 0 1-13.713 13.713z" style="fill:#fff"/><path d="M312.989 271.8a134.526 134.526 0 0 0-12.978-32.98c-1.541-2.652-2.841-7.932-6.954-6.1-4.141 2.182-.549 6.6.8 9.429 8.657 16.027 13.692 31.3 14.961 48.021 1.7 19.165-15.143 36.716-34.3 36.333H65.483a34.6 34.6 0 0 1-25.15-10.9C29.052 304 30.012 288.366 33.82 273.418a127.546 127.546 0 0 1 12.326-31.272 124.386 124.386 0 0 0 6.976-15.407c8.446 15.863 26.284 27.206 52.634 33.677 11.113 2.446 20.151 5.288 33.232 9.772a27.866 27.866 0 0 0 27.45 23.291h7.124a27.866 27.866 0 0 0 27.449-23.292c13.084-4.479 22.116-7.327 33.232-9.772 22.185-4.925 36.247-14.769 44.137-22.159a40.268 40.268 0 0 0 12.524-26.2c2.206-31.3-3.371-69.03-33-77.317v-53.3c.225-43.653-38.092-78.694-81.535-74.655C133 2.838 94.837 37.892 95.055 81.445v52.133c-41.38-1.654-49.352 45.4-45.53 81.907a124.229 124.229 0 0 1-9.537 23.331A134.533 134.533 0 0 0 27.009 271.8c-4.453 17.268-4.776 35.241 8.218 48.595A41.616 41.616 0 0 0 65.483 333.5h209.034c23.067.455 43.348-20.694 41.284-43.785a107.806 107.806 0 0 0-2.812-17.915zm-139.427 14.679h-7.124a20.85 20.85 0 0 1-20.826-20.826v-8.613a6.144 6.144 0 0 1 6.137-6.137h36.5a6.144 6.144 0 0 1 6.137 6.137v8.613a20.849 20.849 0 0 1-20.824 20.826zM250.9 81.445v52.2c-1.349-.105-4.565-.058-5.96-.067-1.174-42.334 8.706-82.944-29.971-112.043a68 68 0 0 1 35.931 59.91zm-27.159 82.962a3.765 3.765 0 0 1 3.76-3.76h12.907a3.765 3.765 0 0 1 3.76 3.76v12.559c-.428 13.493-20 13.5-20.427 0zM102.055 81.445c3.2-89.94 132.712-89.893 135.89 0v72.2h-8.067v-72.2A59.966 59.966 0 0 0 176.7 21.952c-35.117-4.188-66.808 24.107-66.575 59.493v72.2h-8.067zm-6.407 82.962a3.764 3.764 0 0 1 3.759-3.76h12.908a3.765 3.765 0 0 1 3.76 3.76v12.559c-.428 13.493-20 13.5-20.427 0zm-29.557-9.539c5.829-10.2 17.449-15.211 28.964-14.29v14a10.768 10.768 0 0 0-6.407 9.831v12.559a17.214 17.214 0 0 0 34.427 0v-12.561a10.76 10.76 0 0 0-5.953-9.612v-14.217h94.793a3.5 3.5 0 0 0 0-7h-94.793V81.445a52.92 52.92 0 0 1 28.742-47.024c-29.707 23.337-21.782 55.653-22.782 88.721.075 4.582 6.919 4.615 7 0v-41.7a52.834 52.834 0 0 1 46.368-52.47 52.945 52.945 0 0 1 46.427 52.47v73.264a10.762 10.762 0 0 0-6.132 9.7v12.559a17.214 17.214 0 0 0 34.427 0v-12.558a10.765 10.765 0 0 0-6.228-9.745v-14.084c31.923-2.034 41.447 32.983 38.985 70.907a33.293 33.293 0 0 1-10.329 21.661c-7.253 6.794-20.23 15.854-40.869 20.435-10.407 2.253-19.205 5.005-31.339 9.067v-5.608a13.153 13.153 0 0 0-13.142-13.14h-36.5a13.152 13.152 0 0 0-13.137 13.137v5.608c-12.12-4.066-20.939-6.8-31.338-9.067C86.634 249 73.657 239.94 66.4 233.146a33.281 33.281 0 0 1-10.332-21.661c-2.346-28.694 4.155-46.627 10.023-56.617z" style="fill:#3f3f70"/></svg>